<svg xmlns="http://www.w3.org/2000/svg" width="992" height="320" fill="none" viewBox="0 0 992 320">

  <style>
    .title { font: var(--ff-heading), "Inter var", sans-serif; font-weight: 600; font-size: 50px; line-height: 61px; color: black;}
  </style>
      <text class="title" x="0" y="0">
        Sign up for Power BI Weekly
      </text>


  <g class="ad-power-bi">
    <path fill="#F2C811" d="M0 0h992v320H0z"/>
    <g class="logo">
      <g class="graph">
        <path fill="#F2C811" d="M840.622 196.144a41.032 41.032 0 0 1-6.548-4.461l6.548-6.547v11.008Zm9.859 3.77a40.2 40.2 0 0 1-6.549-2.158v-15.929l2.499-2.485 4.05 4.061v16.511Zm9.858 1.079a40.3 40.3 0 0 1-6.548-.436v-13.88l3.214 3.2 3.334-3.334v14.45Zm9.859-1.382a39.04 39.04 0 0 1-6.548 1.212v-17.566l6.548-6.546v22.9Zm9.858-4.17a40.55 40.55 0 0 1-6.547 3.115v-25.154l6.547-6.547v28.586Zm9.859-8.22a41.203 41.203 0 0 1-6.548 6.062v-29.701l2.34-2.364 4.208 4.195v21.808Zm9.823-26.451v2.121a39.646 39.646 0 0 1-6.5 19.967V163.17l4.232-15.663a39.914 39.914 0 0 1 2.34 13.238l-.072.025Z" class="Vector"/>
      </g>
      <path class="bg-circle" fill="black" d="M859.757 116.909a44.124 44.124 0 0 0-43.903 39.657 44.12 44.12 0 1 0 43.903-39.657Z"/>
      <path class="arrow" fill="#F2C811" d="m890.036 160.018-4.329-4.328-28.703 28.707-10.574-10.583-15.218 15.214a39.311 39.311 0 0 1-3.796-4.474l19.014-19.008 10.574 10.583 24.568-24.609-4.317-4.316 17.45-4.679-4.669 17.493Z"/>
      <path class="26" fill="black" d="M864.135 29.14c-1.419-.06-2.837-.06-4.256-.06s-3.105 0-4.645.097v81.889a50.617 50.617 0 0 1 4.524-.218c1.528 0 2.922.085 4.377.206V29.141Z"/>
      <path class="25" fill="black" d="M852.263 111.418a48.844 48.844 0 0 0-8.488 2.061l-18.711-76.58a129.483 129.483 0 0 1 8.428-2.073l18.771 76.592Z"/>
      <path class="24" fill="black" d="M832.886 118.679 798.253 51.41a119 119 0 0 1 7.749-3.903l34.572 67.159a49.783 49.783 0 0 0-7.688 4.013Z"/>
      <path class="23" fill="black" d="m776.353 72.116 47.207 54.213a50.515 50.515 0 0 1 6.512-5.722L782.853 66.37a103.71 103.71 0 0 0-3.032 2.582l-.57.51a66.147 66.147 0 0 0-2.898 2.654Z"/>
      <path class="22" fill="black" d="m816.309 135.966-56.351-39.18a105.368 105.368 0 0 1 4.911-7.092l56.412 39.168a50.735 50.735 0 0 0-4.972 7.104Z"/>
      <path class="21" fill="black" d="m751.046 124.05 60.522 23.033a48.507 48.507 0 0 1 3.128-8.086l-60.631-23.033a109.767 109.767 0 0 0-3.019 8.086Z"/>
      <path class="20" fill="black" d="m749.227 151.871 60.389 7.783c.075-2.895.399-5.779.97-8.619l-60.4-7.783a103.84 103.84 0 0 0-.959 8.619Z"/>
      <path class="19" fill="black" d="m810.598 171.026-56.618 6.4c-.46-2.873-.812-5.697-1.055-8.595l56.69-6.425c.08 2.896.408 5.78.983 8.62Z"/>
      <path class="18" fill="black" d="m764.615 200.932 49.815-18.451a49.347 49.347 0 0 1-3.02-8.122l-49.875 18.463a103.742 103.742 0 0 0 3.08 8.11Z"/>
      <path class="17" fill="black" d="m820.905 192.737-40.744 27.677c-1.746-2.304-3.383-4.643-4.923-7.14l40.816-27.7a50.822 50.822 0 0 0 4.851 7.163Z"/>
      <path class="16" fill="black" d="m823.185 195.283-30.316 33.944a94.38 94.38 0 0 0 6.488 5.758l30.315-33.871a49.558 49.558 0 0 1-6.487-5.831Z"/>
      <path class="15" fill="black" d="M820.481 243.968a93.276 93.276 0 0 1-7.664-4.061l19.644-36.853a49.858 49.858 0 0 0 7.652 4.097l-19.632 36.817Z"/>
      <path class="14" fill="black" d="M834.013 245.277a87.907 87.907 0 0 0 8.416 2.098l9.337-36.866a48.61 48.61 0 0 1-8.416-2.121l-9.337 36.889Z"/>
      <path class="13" fill="black" d="M855.634 210.97c1.37.121 2.74.182 4.123.182.776 0 1.71-.012 2.377-.049a56.723 56.723 0 0 0 2.013-.145l-.364 79.901c-1.297.061-2.595.061-3.892.061-.778 0-1.55-.022-2.32-.043a83.868 83.868 0 0 0-2.3-.042l.363-79.865Z"/>
      <path class="12" fill="black" d="M875.764 208.497a50.206 50.206 0 0 1-8.416 2.061l12.672 52.334c2.85-.558 5.663-1.213 8.489-2.013l-12.745-52.382Z"/>
      <path class="11" fill="black" d="M879.014 207.248a50.774 50.774 0 0 0 7.676-4.037l30.606 58.759a120.84 120.84 0 0 1-7.7 3.976l-30.582-58.698Z"/>
      <path class="10" fill="black" d="M889.539 201.223a51.018 51.018 0 0 0 6.488-5.746l20.687 23.434a81.338 81.338 0 0 1-6.56 5.685l-20.615-23.373Z"/>
      <path class="9" fill="black" d="m903.29 185.767 48.748 33.847a114.697 114.697 0 0 1-5.033 7.067l-48.674-33.786a50.878 50.878 0 0 0 4.959-7.128Z"/>
      <path class="8" fill="black" d="m932.987 184.154-24.968-9.601a50.959 50.959 0 0 1-3.104 8.098l24.895 9.517a76.292 76.292 0 0 0 3.177-8.014Z"/>
      <path class="7" fill="black" d="m972.773 170.395-62.886-7.783v.752a49.33 49.33 0 0 1-1.006 7.855l62.801 7.783a114.57 114.57 0 0 0 1.091-8.607Z"/>
      <path class="6" fill="black" d="m908.832 150.526 46.286-5.528c.436 2.885.74 5.71.933 8.619l-46.176 5.516a50.658 50.658 0 0 0-1.043-8.607Z"/>
      <path class="5" fill="black" d="m938.492 126.377-33.601 12.669a50.647 50.647 0 0 1 3.092 8.097l33.517-12.595a85.396 85.396 0 0 0-3.008-8.171Z"/>
      <path class="4" fill="black" d="m898.27 128.887 22.761-15.663a80.914 80.914 0 0 1 4.887 7.165l-22.676 15.602a49.462 49.462 0 0 0-4.972-7.104Z"/>
      <path class="3" fill="black" d="m904.661 103.465-15.207 17.118a49.811 49.811 0 0 1 6.512 5.721l15.158-17.068a71.304 71.304 0 0 0-6.463-5.771Z"/>
      <path class="2" fill="black" d="m878.868 114.63 8.489-16.05a68.928 68.928 0 0 1 7.688 4.037l-8.488 16.002a50.2 50.2 0 0 0-7.689-3.989Z"/>
      <path class="1" fill="black" d="m868.985 104.362-1.734 7.044c2.884.423 5.725 1.1 8.489 2.024l1.734-7.007a56.02 56.02 0 0 0-8.489-2.061Z"/>
    </g>

    <!-- Cal -->
    <g class="cal">
      <path fill="black" d="M910.867 92.855V75.818H893.83v17.036h-68.146V75.818h-17.036v17.036h-25.555v153.327H936.42V92.855h-25.553Zm8.518 136.291H800.13V134h119.254v95.146h.001Z" class="Vector"/>
      <path fill="black" d="M824.688 196.55h7.136v-28.192h10.453v-5.952h-28.042v5.952h10.453v28.192Zm28.943-1.075c2.123 1.039 4.602 1.559 7.436 1.559 2.823 0 5.296-.52 7.419-1.559 2.123-1.039 3.776-2.493 4.96-4.36 1.184-1.867 1.775-4.045 1.775-6.535v-22.174h-7.219v21.557c0 1.301-.286 2.457-.858 3.468a6.153 6.153 0 0 1-2.418 2.384c-1.039.578-2.259.867-3.659.867-1.39 0-2.606-.289-3.651-.867a6.142 6.142 0 0 1-2.426-2.384c-.572-1.011-.858-2.167-.858-3.468v-21.557h-7.219v22.174c0 2.49.589 4.668 1.767 6.535 1.177 1.867 2.828 3.321 4.951 4.36Zm50.598-4.877h-15.854v-8.153h14.604v-5.951h-14.604v-8.136h15.788v-5.952h-23.007v34.144h23.073v-5.952Z" class="Vector"/>
    </g>

    <!-- Text? -->

      <!-- <path fill="black" d="M55.349 60.633c-.166-1.55-.864-2.758-2.095-3.622-1.22-.864-2.806-1.297-4.759-1.297-1.373 0-2.55.208-3.533.622-.983.414-1.735.977-2.255 1.687a4.101 4.101 0 0 0-.8 2.432c0 .758.172 1.415.516 1.971.355.556.834 1.03 1.438 1.42a10.14 10.14 0 0 0 2.006.96c.734.26 1.474.479 2.22.656l3.409.853c1.373.32 2.693.751 3.96 1.296a13.954 13.954 0 0 1 3.426 2.06 9.14 9.14 0 0 1 2.415 3c.592 1.172.888 2.545.888 4.12 0 2.13-.545 4.006-1.634 5.628-1.089 1.61-2.663 2.87-4.723 3.782-2.048.9-4.528 1.35-7.44 1.35-2.829 0-5.285-.439-7.368-1.314-2.072-.876-3.693-2.155-4.865-3.836-1.16-1.68-1.788-3.728-1.882-6.143h6.48c.095 1.266.486 2.32 1.172 3.16.687.84 1.58 1.468 2.681 1.882 1.113.415 2.356.622 3.73.622 1.431 0 2.686-.213 3.763-.64 1.09-.437 1.942-1.041 2.557-1.81.616-.782.93-1.693.941-2.735-.011-.947-.29-1.728-.834-2.343-.545-.628-1.308-1.149-2.29-1.563-.971-.426-2.108-.805-3.41-1.136l-4.137-1.066c-2.995-.77-5.362-1.935-7.102-3.498-1.728-1.574-2.593-3.663-2.593-6.267 0-2.143.58-4.02 1.74-5.629 1.173-1.61 2.765-2.859 4.777-3.746 2.012-.9 4.29-1.35 6.836-1.35 2.58 0 4.841.45 6.782 1.35 1.954.887 3.486 2.124 4.6 3.71 1.112 1.575 1.686 3.386 1.721 5.434H55.35ZM67.773 87V59.727h6.428V87h-6.428Zm3.232-31.144c-1.018 0-1.894-.337-2.628-1.012-.734-.686-1.1-1.509-1.1-2.468 0-.97.366-1.793 1.1-2.468.734-.686 1.61-1.03 2.628-1.03 1.03 0 1.906.344 2.628 1.03.734.675 1.1 1.498 1.1 2.468 0 .96-.367 1.782-1.1 2.468-.722.675-1.598 1.012-2.628 1.012Zm21.666 41.94c-2.308 0-4.29-.314-5.948-.942-1.657-.615-2.989-1.444-3.995-2.485-1.006-1.042-1.705-2.196-2.095-3.463l5.788-1.402c.26.532.64 1.059 1.136 1.58.498.532 1.166.97 2.007 1.314.852.355 1.924.532 3.214.532 1.823 0 3.332-.444 4.527-1.331 1.196-.876 1.794-2.32 1.794-4.333V82.1h-.32c-.331.663-.817 1.344-1.456 2.042-.627.699-1.462 1.285-2.503 1.758-1.03.474-2.326.71-3.889.71-2.095 0-3.995-.49-5.7-1.473-1.692-.995-3.042-2.474-4.048-4.44-.994-1.976-1.491-4.45-1.491-7.421 0-2.995.497-5.522 1.491-7.582 1.006-2.071 2.362-3.64 4.066-4.705 1.705-1.077 3.605-1.616 5.7-1.616 1.598 0 2.912.272 3.942.817 1.041.533 1.87 1.178 2.485 1.935.616.746 1.084 1.45 1.403 2.113h.355v-4.51h6.339v27.717c0 2.332-.556 4.261-1.669 5.788-1.113 1.527-2.634 2.67-4.563 3.427-1.93.758-4.12 1.136-6.57 1.136Zm.053-16.23c1.362 0 2.522-.33 3.48-.994.96-.662 1.687-1.615 2.184-2.858.498-1.243.746-2.735.746-4.475 0-1.716-.248-3.22-.746-4.51-.485-1.29-1.207-2.29-2.166-3-.947-.722-2.113-1.083-3.498-1.083-1.432 0-2.627.373-3.586 1.118-.959.746-1.681 1.77-2.166 3.072-.486 1.29-.728 2.758-.728 4.403 0 1.67.242 3.131.728 4.386.497 1.243 1.225 2.213 2.184 2.912.97.686 2.16 1.03 3.568 1.03Zm25.764-10.546V87h-6.428V59.727h6.144v4.635h.319a7.8 7.8 0 0 1 3.001-3.64c1.385-.9 3.096-1.35 5.132-1.35 1.882 0 3.521.403 4.918 1.208 1.408.805 2.497 1.97 3.267 3.497.781 1.527 1.166 3.38 1.154 5.558V87h-6.428V70.63c0-1.824-.473-3.25-1.42-4.28-.935-1.03-2.231-1.545-3.888-1.545-1.125 0-2.125.249-3.001.746-.864.486-1.545 1.19-2.042 2.113-.485.923-.728 2.042-.728 3.356Zm53.826 4.51V59.727h6.428V87h-6.232v-4.847h-.285c-.615 1.527-1.627 2.775-3.036 3.746-1.397.97-3.119 1.456-5.167 1.456-1.787 0-3.367-.396-4.74-1.19-1.362-.804-2.427-1.97-3.196-3.497-.77-1.54-1.155-3.398-1.155-5.576V59.727h6.428v16.371c0 1.728.474 3.101 1.42 4.12.947 1.017 2.19 1.526 3.729 1.526.947 0 1.865-.23 2.752-.692.888-.462 1.616-1.148 2.184-2.06.58-.923.87-2.077.87-3.462Zm13.037 21.697v-37.5h6.321v4.51h.373c.332-.663.799-1.367 1.403-2.113.604-.757 1.42-1.402 2.45-1.935 1.03-.545 2.344-.817 3.942-.817 2.107 0 4.007.539 5.7 1.616 1.704 1.065 3.054 2.645 4.048 4.74 1.006 2.084 1.509 4.64 1.509 7.671 0 2.995-.491 5.54-1.474 7.635-.982 2.095-2.32 3.693-4.012 4.794-1.693 1.101-3.611 1.651-5.753 1.651-1.563 0-2.859-.26-3.889-.78-1.03-.522-1.858-1.149-2.486-1.883-.615-.746-1.094-1.45-1.438-2.113h-.266v14.524h-6.428Zm6.304-23.863c0 1.763.248 3.308.745 4.634.509 1.326 1.237 2.361 2.184 3.107.959.734 2.119 1.101 3.48 1.101 1.421 0 2.611-.379 3.569-1.136.959-.77 1.681-1.817 2.167-3.143.497-1.338.745-2.859.745-4.563 0-1.693-.242-3.196-.728-4.51-.485-1.314-1.207-2.344-2.166-3.09-.959-.745-2.154-1.118-3.587-1.118-1.373 0-2.539.36-3.497 1.083-.959.722-1.687 1.734-2.184 3.036-.486 1.302-.728 2.835-.728 4.599Zm51.163-13.637V64.7h-16.123v-4.972h16.123ZM230.726 87V57.153c0-1.835.379-3.362 1.136-4.581a7.2 7.2 0 0 1 3.09-2.735c1.29-.603 2.722-.905 4.297-.905 1.112 0 2.101.089 2.965.266.864.178 1.503.337 1.918.48l-1.279 4.971a11.056 11.056 0 0 0-1.03-.248 6.225 6.225 0 0 0-1.385-.143c-1.195 0-2.042.29-2.539.87-.485.569-.728 1.386-.728 2.45V87h-6.445Zm27.996.533c-2.663 0-4.971-.586-6.924-1.758-1.954-1.172-3.469-2.812-4.546-4.919-1.065-2.106-1.598-4.569-1.598-7.386s.533-5.285 1.598-7.404c1.077-2.119 2.592-3.764 4.546-4.936 1.953-1.172 4.261-1.758 6.924-1.758 2.664 0 4.972.586 6.925 1.758 1.953 1.172 3.462 2.817 4.528 4.936 1.077 2.119 1.615 4.587 1.615 7.404s-.538 5.28-1.615 7.386c-1.066 2.108-2.575 3.747-4.528 4.919-1.953 1.172-4.261 1.758-6.925 1.758Zm.036-5.15c1.444 0 2.651-.396 3.622-1.19.971-.804 1.693-1.881 2.166-3.23.485-1.35.728-2.853.728-4.51 0-1.67-.243-3.179-.728-4.528-.473-1.362-1.195-2.445-2.166-3.25-.971-.804-2.178-1.207-3.622-1.207-1.48 0-2.711.403-3.693 1.207-.971.805-1.699 1.888-2.184 3.25-.474 1.35-.711 2.858-.711 4.527 0 1.658.237 3.16.711 4.51.485 1.35 1.213 2.427 2.184 3.232.982.793 2.213 1.19 3.693 1.19ZM277.246 87V59.727h6.232v4.546h.284c.497-1.575 1.35-2.788 2.557-3.64 1.219-.864 2.61-1.296 4.173-1.296.355 0 .751.017 1.189.053.45.024.823.065 1.119.124v5.913c-.272-.095-.704-.178-1.296-.249a11.929 11.929 0 0 0-1.687-.124c-1.172 0-2.225.254-3.161.763a5.591 5.591 0 0 0-2.184 2.078c-.532.888-.799 1.912-.799 3.072V87h-6.427Zm32.511 0V50.636h13.636c2.793 0 5.137.521 7.031 1.563 1.906 1.041 3.344 2.474 4.315 4.297.982 1.81 1.474 3.87 1.474 6.179 0 2.332-.492 4.403-1.474 6.214-.983 1.811-2.433 3.238-4.35 4.28-1.918 1.03-4.279 1.544-7.085 1.544h-9.037v-5.415h8.149c1.634 0 2.971-.285 4.013-.853 1.042-.568 1.811-1.35 2.308-2.343.509-.995.764-2.137.764-3.427s-.255-2.427-.764-3.41c-.497-.982-1.272-1.745-2.326-2.29-1.041-.556-2.385-.834-4.03-.834h-6.037V87h-6.587Zm43.399.533c-2.663 0-4.972-.586-6.925-1.758-1.953-1.172-3.468-2.812-4.545-4.919-1.066-2.106-1.598-4.569-1.598-7.386s.532-5.285 1.598-7.404c1.077-2.119 2.592-3.764 4.545-4.936 1.953-1.172 4.262-1.758 6.925-1.758 2.663 0 4.971.586 6.925 1.758 1.953 1.172 3.462 2.817 4.527 4.936 1.077 2.119 1.616 4.587 1.616 7.404s-.539 5.28-1.616 7.386c-1.065 2.108-2.574 3.747-4.527 4.919-1.954 1.172-4.262 1.758-6.925 1.758Zm.035-5.15c1.445 0 2.652-.396 3.623-1.19.97-.804 1.692-1.881 2.166-3.23.485-1.35.728-2.853.728-4.51 0-1.67-.243-3.179-.728-4.528-.474-1.362-1.196-2.445-2.166-3.25-.971-.804-2.178-1.207-3.623-1.207-1.479 0-2.71.403-3.693 1.207-.97.805-1.698 1.888-2.184 3.25-.473 1.35-.71 2.858-.71 4.527 0 1.658.237 3.16.71 4.51.486 1.35 1.214 2.427 2.184 3.232.983.793 2.214 1.19 3.693 1.19ZM376.527 87l-7.706-27.273h6.552l4.794 19.176h.248l4.901-19.176h6.481l4.9 19.07h.267l4.723-19.07h6.569L400.532 87h-6.693l-5.114-18.43h-.373L383.238 87h-6.711Zm47.51.533c-2.735 0-5.096-.569-7.085-1.705-1.977-1.148-3.498-2.77-4.563-4.865-1.065-2.107-1.598-4.587-1.598-7.44 0-2.805.533-5.267 1.598-7.386 1.077-2.13 2.58-3.788 4.51-4.971 1.929-1.196 4.196-1.794 6.8-1.794 1.681 0 3.267.272 4.759.817a10.755 10.755 0 0 1 3.977 2.486c1.16 1.124 2.072 2.556 2.734 4.297.663 1.728.995 3.788.995 6.179v1.97h-22.355V70.79h16.193c-.011-1.231-.278-2.326-.799-3.285a5.802 5.802 0 0 0-2.183-2.29c-.924-.557-2.001-.835-3.232-.835-1.314 0-2.468.32-3.462.96A6.598 6.598 0 0 0 418 67.823c-.545 1.018-.823 2.136-.835 3.356v3.782c0 1.586.29 2.947.87 4.084.58 1.124 1.391 1.988 2.433 2.592 1.041.592 2.261.888 3.657.888.935 0 1.782-.13 2.539-.391a5.628 5.628 0 0 0 1.971-1.19 4.946 4.946 0 0 0 1.261-1.935l6.001.675a9.341 9.341 0 0 1-2.166 4.154c-1.053 1.172-2.403 2.084-4.048 2.735-1.645.64-3.528.959-5.646.959ZM441.601 87V59.727h6.233v4.546h.284c.497-1.575 1.349-2.788 2.557-3.64 1.219-.864 2.61-1.296 4.172-1.296.355 0 .752.017 1.19.053.45.024.822.065 1.118.124v5.913c-.272-.095-.704-.178-1.296-.249a11.918 11.918 0 0 0-1.687-.124c-1.171 0-2.225.254-3.16.763a5.591 5.591 0 0 0-2.184 2.078c-.533.888-.799 1.912-.799 3.072V87h-6.428Zm32.511 0V50.636h13.92c2.628 0 4.812.415 6.552 1.243 1.752.817 3.06 1.936 3.924 3.356.876 1.42 1.314 3.03 1.314 4.83 0 1.48-.284 2.746-.852 3.8a7.172 7.172 0 0 1-2.29 2.538 9.704 9.704 0 0 1-3.214 1.403v.355c1.29.071 2.527.468 3.711 1.19 1.195.71 2.172 1.716 2.929 3.018.758 1.302 1.137 2.877 1.137 4.723 0 1.882-.456 3.575-1.367 5.079-.912 1.49-2.285 2.669-4.12 3.533-1.835.864-4.143 1.296-6.925 1.296h-14.719Zm6.587-5.504h7.085c2.391 0 4.113-.456 5.167-1.367 1.065-.924 1.598-2.108 1.598-3.552 0-1.077-.267-2.047-.799-2.912-.533-.876-1.29-1.562-2.273-2.06-.982-.508-2.154-.763-3.516-.763h-7.262v10.654Zm0-15.394h6.517c1.136 0 2.16-.208 3.071-.622.912-.426 1.628-1.024 2.149-1.793.533-.781.799-1.705.799-2.77 0-1.409-.497-2.569-1.492-3.48-.982-.912-2.444-1.367-4.385-1.367h-6.659v10.032Zm32.862-15.466V87h-6.588V50.636h6.588ZM540.749 87l-10.263-36.364h7.085l6.552 26.723h.337l6.996-26.723h6.445l7.014 26.74h.319l6.552-26.74h7.085L568.608 87h-6.499l-7.28-25.515h-.284L547.248 87h-6.499Zm51.696.533c-2.735 0-5.096-.569-7.085-1.705-1.977-1.148-3.498-2.77-4.563-4.865-1.065-2.107-1.598-4.587-1.598-7.44 0-2.805.533-5.267 1.598-7.386 1.077-2.13 2.581-3.788 4.51-4.971 1.929-1.196 4.196-1.794 6.8-1.794 1.681 0 3.267.272 4.759.817a10.755 10.755 0 0 1 3.977 2.486c1.16 1.124 2.072 2.556 2.735 4.297.662 1.728.994 3.788.994 6.179v1.97h-22.354V70.79h16.193c-.012-1.231-.278-2.326-.799-3.285a5.811 5.811 0 0 0-2.184-2.29c-.924-.557-2.001-.835-3.232-.835-1.314 0-2.468.32-3.462.96a6.605 6.605 0 0 0-2.326 2.485c-.545 1.018-.823 2.136-.835 3.356v3.782c0 1.586.29 2.947.87 4.084.58 1.124 1.391 1.988 2.433 2.592 1.042.592 2.261.888 3.658.888.935 0 1.781-.13 2.539-.391a5.646 5.646 0 0 0 1.971-1.19 4.955 4.955 0 0 0 1.26-1.935l6.002.675a9.353 9.353 0 0 1-2.167 4.154c-1.053 1.172-2.403 2.084-4.048 2.735-1.645.64-3.527.959-5.646.959Zm29.638 0c-2.734 0-5.095-.569-7.084-1.705-1.977-1.148-3.498-2.77-4.563-4.865-1.066-2.107-1.598-4.587-1.598-7.44 0-2.805.532-5.267 1.598-7.386 1.077-2.13 2.58-3.788 4.51-4.971 1.929-1.196 4.196-1.794 6.8-1.794 1.681 0 3.267.272 4.759.817a10.755 10.755 0 0 1 3.977 2.486c1.16 1.124 2.071 2.556 2.734 4.297.663 1.728.995 3.788.995 6.179v1.97h-22.355V70.79h16.193c-.011-1.231-.278-2.326-.799-3.285a5.797 5.797 0 0 0-2.184-2.29c-.923-.557-2-.835-3.231-.835-1.314 0-2.468.32-3.462.96a6.598 6.598 0 0 0-2.326 2.485c-.545 1.018-.823 2.136-.835 3.356v3.782c0 1.586.29 2.947.87 4.084.58 1.124 1.391 1.988 2.433 2.592 1.041.592 2.26.888 3.657.888.935 0 1.782-.13 2.539-.391a5.628 5.628 0 0 0 1.971-1.19 4.946 4.946 0 0 0 1.261-1.935l6.001.675a9.361 9.361 0 0 1-2.166 4.154c-1.053 1.172-2.403 2.084-4.048 2.735-1.646.64-3.528.959-5.647.959Zm23.425-9.091-.018-7.76h1.03l9.801-10.955h7.51l-12.056 13.424h-1.331l-4.936 5.29ZM639.648 87V50.636h6.428V87h-6.428Zm17.117 0-8.878-12.411 4.332-4.528L664.453 87h-7.688Zm17.778-36.364V87h-6.428V50.636h6.428Zm10.604 46.591c-.876 0-1.687-.07-2.432-.213-.734-.13-1.32-.284-1.758-.461l1.491-5.007c.935.272 1.77.402 2.504.39a3.07 3.07 0 0 0 1.935-.692c.568-.438 1.048-1.172 1.438-2.202l.551-1.474-9.89-27.84h6.818l6.286 20.596h.284l6.303-20.597h6.836l-10.92 30.576c-.509 1.444-1.183 2.68-2.024 3.71a8.224 8.224 0 0 1-3.089 2.38c-1.208.556-2.652.834-4.333.834Z" class="Sign up for Power BI Weekly"/>
      <path fill="black" d="M33.761 143v-14.545h4.915c1.141 0 2.074.206 2.798.617.73.408 1.27.959 1.62 1.655.35.696.525 1.473.525 2.33s-.175 1.636-.525 2.336c-.346.701-.88 1.26-1.605 1.677-.725.412-1.653.618-2.784.618h-3.523v-1.563h3.466c.781 0 1.408-.135 1.882-.405.473-.27.817-.634 1.03-1.094.218-.464.326-.987.326-1.569 0-.583-.108-1.103-.326-1.563a2.33 2.33 0 0 0-1.037-1.079c-.479-.265-1.113-.398-1.904-.398h-3.096V143H33.76Zm16.783.227c-.985 0-1.849-.234-2.592-.703-.739-.469-1.317-1.124-1.733-1.967-.412-.843-.618-1.828-.618-2.955 0-1.136.206-2.128.618-2.976.416-.847.994-1.505 1.733-1.974.743-.469 1.607-.703 2.592-.703.985 0 1.847.234 2.585.703.744.469 1.321 1.127 1.733 1.974.417.848.625 1.84.625 2.976 0 1.127-.208 2.112-.625 2.955-.412.843-.99 1.498-1.733 1.967-.738.469-1.6.703-2.585.703Zm0-1.505c.748 0 1.364-.192 1.847-.576.483-.383.84-.887 1.072-1.512a5.797 5.797 0 0 0 .348-2.032 5.85 5.85 0 0 0-.348-2.038 3.44 3.44 0 0 0-1.072-1.527c-.483-.388-1.099-.582-1.847-.582s-1.364.194-1.847.582c-.483.388-.84.897-1.072 1.527a5.85 5.85 0 0 0-.348 2.038c0 .729.116 1.407.348 2.032.232.625.59 1.129 1.072 1.512.483.384 1.099.576 1.847.576ZM60.146 143l-3.324-10.909h1.762l2.358 8.352h.113l2.33-8.352h1.79l2.3 8.324h.115l2.357-8.324h1.762L68.385 143h-1.648l-2.386-8.381h-.17L61.793 143h-1.648Zm17.981.227c-1.05 0-1.957-.232-2.72-.696a4.673 4.673 0 0 1-1.754-1.96c-.407-.843-.61-1.823-.61-2.94 0-1.118.203-2.103.61-2.955.412-.857.985-1.524 1.719-2.003.738-.483 1.6-.724 2.585-.724.568 0 1.13.095 1.683.284a4.167 4.167 0 0 1 1.513.923c.455.422.817.98 1.087 1.676s.404 1.553.404 2.571v.711h-8.409v-1.449h6.705c0-.616-.123-1.165-.37-1.648a2.78 2.78 0 0 0-1.036-1.143c-.445-.28-.97-.419-1.577-.419-.668 0-1.245.165-1.733.497a3.268 3.268 0 0 0-1.115 1.278 3.757 3.757 0 0 0-.39 1.69v.966c0 .824.141 1.523.425 2.096a3.072 3.072 0 0 0 1.2 1.299c.512.294 1.106.441 1.784.441.44 0 .838-.062 1.193-.185.36-.128.67-.317.93-.568.26-.256.462-.573.604-.952l1.62.455a3.585 3.585 0 0 1-.86 1.448c-.403.412-.9.734-1.492.966-.592.228-1.257.341-1.996.341Zm7.067-.227v-10.909h1.62v1.648h.113c.2-.54.559-.978 1.08-1.314a3.18 3.18 0 0 1 1.761-.505c.123 0 .277.003.462.008.184.004.324.011.419.021v1.704a5.392 5.392 0 0 0-.39-.064 3.863 3.863 0 0 0-.633-.049 2.96 2.96 0 0 0-1.42.334c-.412.217-.739.52-.98.909a2.448 2.448 0 0 0-.356 1.314V143h-1.676Zm13.294 0v-14.545h5.085c1.013 0 1.849.175 2.507.525.658.346 1.148.812 1.47 1.399.322.583.483 1.229.483 1.939 0 .625-.111 1.141-.333 1.548-.218.408-.507.73-.867.966a3.944 3.944 0 0 1-1.158.526v.142c.446.028.893.185 1.343.469.45.284.826.691 1.129 1.221.303.531.455 1.179.455 1.946 0 .73-.166 1.385-.498 1.968-.331.582-.854 1.044-1.569 1.385-.715.341-1.646.511-2.791.511h-5.256Zm1.761-1.562h3.495c1.15 0 1.967-.223 2.45-.668.488-.45.731-.994.731-1.634a2.59 2.59 0 0 0-.376-1.363 2.72 2.72 0 0 0-1.072-1.009c-.464-.255-1.014-.383-1.648-.383h-3.58v5.057Zm0-6.591h3.267c.531 0 1.009-.105 1.435-.313a2.505 2.505 0 0 0 1.023-.881c.255-.378.383-.823.383-1.335 0-.639-.222-1.181-.667-1.626-.445-.45-1.151-.675-2.117-.675h-3.324v4.83Zm13.008-6.392V143h-1.761v-14.545h1.761ZM125.056 143l-3.978-14.545h1.79l3.04 11.846h.142l3.097-11.846h1.988l3.097 11.846h.142l3.04-11.846h1.789L135.226 143h-1.818l-3.21-11.591h-.114L126.874 143h-1.818Zm19.673.227c-1.051 0-1.958-.232-2.72-.696-.758-.469-1.342-1.122-1.754-1.96-.408-.843-.611-1.823-.611-2.94 0-1.118.203-2.103.611-2.955.412-.857.984-1.524 1.718-2.003.739-.483 1.601-.724 2.586-.724.568 0 1.129.095 1.683.284a4.17 4.17 0 0 1 1.513.923c.454.422.816.98 1.086 1.676.27.696.405 1.553.405 2.571v.711h-8.409v-1.449h6.705c0-.616-.124-1.165-.37-1.648a2.775 2.775 0 0 0-1.037-1.143c-.445-.28-.97-.419-1.576-.419-.668 0-1.246.165-1.733.497a3.264 3.264 0 0 0-1.115 1.278 3.75 3.75 0 0 0-.391 1.69v.966c0 .824.142 1.523.426 2.096a3.074 3.074 0 0 0 1.2 1.299c.512.294 1.106.441 1.783.441.44 0 .838-.062 1.193-.185.36-.128.67-.317.931-.568.26-.256.461-.573.603-.952l1.62.455a3.586 3.586 0 0 1-.86 1.448 4.18 4.18 0 0 1-1.491.966c-.592.228-1.257.341-1.996.341Zm11.641 0c-1.051 0-1.958-.232-2.72-.696a4.672 4.672 0 0 1-1.755-1.96c-.407-.843-.611-1.823-.611-2.94 0-1.118.204-2.103.611-2.955.412-.857.985-1.524 1.719-2.003.739-.483 1.6-.724 2.585-.724.568 0 1.129.095 1.683.284a4.162 4.162 0 0 1 1.513.923c.455.422.817.98 1.087 1.676s.405 1.553.405 2.571v.711h-8.409v-1.449h6.704c0-.616-.123-1.165-.369-1.648a2.782 2.782 0 0 0-1.037-1.143c-.445-.28-.971-.419-1.577-.419-.667 0-1.245.165-1.733.497a3.272 3.272 0 0 0-1.115 1.278 3.762 3.762 0 0 0-.39 1.69v.966c0 .824.142 1.523.426 2.096a3.074 3.074 0 0 0 1.2 1.299c.511.294 1.106.441 1.783.441.44 0 .838-.062 1.193-.185.36-.128.67-.317.93-.568.261-.256.462-.573.604-.952l1.619.455a3.584 3.584 0 0 1-.859 1.448c-.403.412-.9.734-1.492.966-.591.228-1.257.341-1.995.341Zm8.629-4.204-.028-2.074h.34l4.773-4.858h2.074l-5.085 5.142h-.142l-1.932 1.79ZM163.436 143v-14.545h1.677V143h-1.677Zm6.932 0-4.261-5.398 1.193-1.164 5.199 6.562h-2.131Zm5.623-14.545V143h-1.676v-14.545h1.676Zm4.15 18.636a3.7 3.7 0 0 1-.76-.071 2.012 2.012 0 0 1-.462-.128l.427-1.477c.407.104.767.142 1.079.113a1.29 1.29 0 0 0 .831-.419c.246-.246.471-.646.675-1.2l.312-.852-4.034-10.966h1.818l3.012 8.693h.113l3.012-8.693h1.818l-4.631 12.5c-.208.563-.466 1.03-.774 1.399a2.905 2.905 0 0 1-1.072.831c-.403.18-.857.27-1.364.27ZM195.819 143v-10.909h1.676V143h-1.676Zm.853-12.727c-.327 0-.609-.112-.846-.334a1.073 1.073 0 0 1-.348-.803c0-.312.116-.58.348-.802.237-.223.519-.334.846-.334.326 0 .606.111.838.334.236.222.355.49.355.802 0 .313-.119.58-.355.803a1.17 1.17 0 0 1-.838.334Zm11.621 4.261-1.506.426a2.78 2.78 0 0 0-.419-.731 2.025 2.025 0 0 0-.739-.597c-.312-.156-.712-.234-1.2-.234-.668 0-1.224.154-1.669.461-.44.303-.661.689-.661 1.158 0 .417.152.746.455.987.303.242.776.443 1.42.604l1.62.398c.975.236 1.702.599 2.18 1.086.478.483.717 1.106.717 1.868 0 .625-.179 1.184-.539 1.676-.355.493-.853.881-1.492 1.165-.639.284-1.382.426-2.23.426-1.113 0-2.034-.241-2.763-.724-.729-.483-1.19-1.189-1.385-2.117l1.591-.397c.152.587.438 1.027.86 1.321.426.293.982.44 1.669.44.781 0 1.401-.166 1.86-.497.465-.336.697-.739.697-1.208 0-.378-.133-.696-.398-.951-.265-.261-.673-.455-1.222-.583l-1.818-.426c-.999-.237-1.733-.603-2.202-1.101-.464-.502-.696-1.129-.696-1.882 0-.615.173-1.16.519-1.633.35-.474.826-.845 1.427-1.115.606-.27 1.293-.405 2.06-.405 1.08 0 1.927.237 2.543.71a3.839 3.839 0 0 1 1.321 1.875Zm11.557 8.722a4.435 4.435 0 0 1-1.882-.391 3.23 3.23 0 0 1-1.343-1.143c-.331-.502-.497-1.108-.497-1.819 0-.625.123-1.131.37-1.519a2.61 2.61 0 0 1 .987-.924 5.21 5.21 0 0 1 1.363-.497 16.427 16.427 0 0 1 1.513-.27c.663-.085 1.2-.149 1.612-.192.417-.047.72-.125.909-.234.195-.109.292-.298.292-.568v-.057c0-.701-.192-1.245-.576-1.633-.378-.389-.954-.583-1.725-.583-.801 0-1.428.175-1.883.526-.454.35-.774.724-.958 1.122l-1.591-.568c.284-.663.663-1.179 1.136-1.549a4.259 4.259 0 0 1 1.563-.781 6.503 6.503 0 0 1 1.676-.227c.35 0 .753.042 1.207.128.459.08.902.248 1.328.504.431.256.789.642 1.073 1.158.284.516.426 1.207.426 2.073V143h-1.676v-1.477h-.086c-.113.236-.303.49-.568.76-.265.27-.618.499-1.058.689-.44.189-.978.284-1.612.284Zm.255-1.506c.663 0 1.222-.13 1.677-.391.459-.26.805-.596 1.037-1.008.236-.412.355-.845.355-1.3v-1.534c-.071.085-.228.163-.469.234a7.689 7.689 0 0 1-.824.178c-.308.047-.608.09-.902.128-.289.033-.523.061-.703.085a6.406 6.406 0 0 0-1.222.277c-.374.123-.677.31-.909.561-.227.246-.341.582-.341 1.009 0 .582.216 1.022.647 1.321.435.293.987.44 1.654.44Zm17.861 1.477c-1.023 0-1.903-.241-2.642-.724-.739-.483-1.307-1.148-1.705-1.996-.397-.847-.596-1.816-.596-2.905 0-1.108.203-2.085.611-2.933.411-.852.984-1.517 1.718-1.996.739-.483 1.601-.724 2.586-.724.767 0 1.458.142 2.073.426a3.97 3.97 0 0 1 1.513 1.193c.393.512.637 1.108.732 1.79h-1.676c-.128-.497-.412-.938-.853-1.321-.435-.388-1.022-.582-1.761-.582-.653 0-1.226.17-1.719.511-.488.336-.869.812-1.143 1.427-.27.611-.405 1.329-.405 2.152 0 .843.132 1.577.398 2.202.269.625.648 1.11 1.136 1.456.492.346 1.07.519 1.733.519.436 0 .831-.076 1.186-.228a2.44 2.44 0 0 0 .902-.653c.246-.284.421-.625.526-1.023h1.676a3.886 3.886 0 0 1-.703 1.74 3.93 3.93 0 0 1-1.471 1.222c-.606.298-1.311.447-2.116.447Zm11.172 0c-.985 0-1.849-.234-2.593-.703-.738-.469-1.316-1.124-1.733-1.967-.411-.843-.617-1.828-.617-2.955 0-1.136.206-2.128.617-2.976.417-.847.995-1.505 1.733-1.974.744-.469 1.608-.703 2.593-.703.985 0 1.846.234 2.585.703.743.469 1.321 1.127 1.733 1.974.417.848.625 1.84.625 2.976 0 1.127-.208 2.112-.625 2.955-.412.843-.99 1.498-1.733 1.967-.739.469-1.6.703-2.585.703Zm0-1.505c.748 0 1.363-.192 1.846-.576a3.387 3.387 0 0 0 1.073-1.512 5.797 5.797 0 0 0 .348-2.032 5.85 5.85 0 0 0-.348-2.038 3.433 3.433 0 0 0-1.073-1.527c-.483-.388-1.098-.582-1.846-.582s-1.364.194-1.847.582c-.483.388-.84.897-1.072 1.527a5.85 5.85 0 0 0-.348 2.038c0 .729.116 1.407.348 2.032.232.625.589 1.129 1.072 1.512.483.384 1.099.576 1.847.576Zm9.178-13.267V143h-1.676v-14.545h1.676Zm4.746 0V143h-1.676v-14.545h1.676Zm6.28 14.801a4.438 4.438 0 0 1-1.882-.391 3.222 3.222 0 0 1-1.342-1.143c-.332-.502-.498-1.108-.498-1.819 0-.625.123-1.131.37-1.519a2.61 2.61 0 0 1 .987-.924 5.203 5.203 0 0 1 1.364-.497 16.346 16.346 0 0 1 1.512-.27 72.061 72.061 0 0 1 1.613-.192c.416-.047.719-.125.909-.234.194-.109.291-.298.291-.568v-.057c0-.701-.192-1.245-.575-1.633-.379-.389-.955-.583-1.726-.583-.8 0-1.428.175-1.882.526-.455.35-.775.724-.959 1.122l-1.591-.568c.284-.663.663-1.179 1.136-1.549a4.259 4.259 0 0 1 1.563-.781 6.508 6.508 0 0 1 1.676-.227c.35 0 .753.042 1.207.128.46.08.902.248 1.328.504.431.256.789.642 1.073 1.158.284.516.426 1.207.426 2.073V143h-1.676v-1.477h-.085c-.114.236-.303.49-.569.76-.265.27-.617.499-1.058.689-.44.189-.978.284-1.612.284Zm.256-1.506c.663 0 1.221-.13 1.676-.391.459-.26.805-.596 1.037-1.008.236-.412.355-.845.355-1.3v-1.534c-.071.085-.227.163-.469.234a7.689 7.689 0 0 1-.824.178c-.308.047-.608.09-.902.128-.289.033-.523.061-.703.085a6.396 6.396 0 0 0-1.221.277c-.375.123-.678.31-.91.561-.227.246-.34.582-.34 1.009 0 .582.215 1.022.646 1.321.435.293.987.44 1.655.44Zm12.548-9.659v1.42h-5.654v-1.42h5.654Zm-4.006-2.614h1.676v10.398c0 .473.069.829.206 1.065.142.232.322.389.54.469.222.076.457.114.703.114.185 0 .336-.01.454-.029l.285-.056.34 1.505a3.389 3.389 0 0 1-.475.128 3.533 3.533 0 0 1-.775.071c-.473 0-.937-.102-1.392-.305a2.777 2.777 0 0 1-1.122-.931c-.293-.416-.44-.942-.44-1.576v-10.853ZM284.667 143v-10.909h1.676V143h-1.676Zm.852-12.727c-.327 0-.608-.112-.845-.334a1.073 1.073 0 0 1-.348-.803c0-.312.116-.58.348-.802a1.19 1.19 0 0 1 .845-.334c.327 0 .606.111.838.334.237.222.355.49.355.802 0 .313-.118.58-.355.803a1.169 1.169 0 0 1-.838.334Zm8.326 12.954c-.985 0-1.849-.234-2.593-.703-.738-.469-1.316-1.124-1.732-1.967-.412-.843-.618-1.828-.618-2.955 0-1.136.206-2.128.618-2.976.416-.847.994-1.505 1.732-1.974.744-.469 1.608-.703 2.593-.703.985 0 1.846.234 2.585.703.743.469 1.321 1.127 1.733 1.974.417.848.625 1.84.625 2.976 0 1.127-.208 2.112-.625 2.955-.412.843-.99 1.498-1.733 1.967-.739.469-1.6.703-2.585.703Zm0-1.505c.748 0 1.363-.192 1.846-.576a3.387 3.387 0 0 0 1.073-1.512 5.797 5.797 0 0 0 .348-2.032 5.85 5.85 0 0 0-.348-2.038 3.433 3.433 0 0 0-1.073-1.527c-.483-.388-1.098-.582-1.846-.582s-1.364.194-1.847.582c-.483.388-.84.897-1.072 1.527a5.85 5.85 0 0 0-.348 2.038c0 .729.116 1.407.348 2.032.232.625.589 1.129 1.072 1.512.483.384 1.099.576 1.847.576Zm9.178-5.284V143h-1.676v-10.909h1.619v1.704h.142a3.115 3.115 0 0 1 1.165-1.335c.521-.341 1.193-.511 2.017-.511.738 0 1.385.151 1.939.454.554.299.985.753 1.292 1.364.308.606.462 1.373.462 2.301V143h-1.676v-6.818c0-.857-.223-1.525-.668-2.003-.445-.483-1.056-.724-1.832-.724-.535 0-1.013.116-1.435.348-.417.232-.746.57-.987 1.015-.242.445-.362.985-.362 1.62Zm20.08 6.789c-.985 0-1.849-.234-2.593-.703-.738-.469-1.316-1.124-1.733-1.967-.412-.843-.618-1.828-.618-2.955 0-1.136.206-2.128.618-2.976.417-.847.995-1.505 1.733-1.974.744-.469 1.608-.703 2.593-.703.984 0 1.846.234 2.585.703.743.469 1.321 1.127 1.733 1.974.416.848.625 1.84.625 2.976 0 1.127-.209 2.112-.625 2.955-.412.843-.99 1.498-1.733 1.967-.739.469-1.601.703-2.585.703Zm0-1.505c.748 0 1.363-.192 1.846-.576a3.387 3.387 0 0 0 1.073-1.512 5.797 5.797 0 0 0 .348-2.032 5.85 5.85 0 0 0-.348-2.038 3.433 3.433 0 0 0-1.073-1.527c-.483-.388-1.098-.582-1.846-.582s-1.364.194-1.847.582c-.483.388-.84.897-1.072 1.527a5.85 5.85 0 0 0-.348 2.038c0 .729.116 1.407.348 2.032.232.625.589 1.129 1.072 1.512.483.384 1.099.576 1.847.576Zm12.359-9.631v1.42h-5.88v-1.42h5.88ZM331.343 143v-12.415c0-.625.147-1.146.44-1.562a2.735 2.735 0 0 1 1.144-.938 3.618 3.618 0 0 1 1.484-.312c.412 0 .748.033 1.009.099.26.066.454.128.582.185l-.483 1.449a7.58 7.58 0 0 0-.355-.107 2.178 2.178 0 0 0-.582-.064c-.554 0-.954.14-1.201.419-.241.28-.362.689-.362 1.229V143h-1.676Zm16.838-10.909v1.42h-5.654v-1.42h5.654Zm-4.006-2.614h1.676v10.398c0 .473.069.829.206 1.065.142.232.322.389.54.469.222.076.457.114.703.114.185 0 .336-.01.455-.029l.284-.056.341 1.505a3.449 3.449 0 0 1-.476.128 3.529 3.529 0 0 1-.774.071c-.474 0-.938-.102-1.392-.305a2.773 2.773 0 0 1-1.123-.931c-.293-.416-.44-.942-.44-1.576v-10.853Zm8.438 6.961V143h-1.677v-14.545h1.677v5.34h.142a3.085 3.085 0 0 1 1.15-1.342c.516-.336 1.203-.504 2.06-.504.743 0 1.394.149 1.953.447.559.294.992.746 1.3 1.357.312.606.468 1.378.468 2.315V143h-1.676v-6.818c0-.867-.225-1.537-.674-2.01-.445-.478-1.063-.717-1.854-.717-.549 0-1.042.116-1.477.348-.431.232-.772.57-1.023 1.015-.246.445-.369.985-.369 1.62Zm14.714 6.789c-1.051 0-1.958-.232-2.72-.696a4.672 4.672 0 0 1-1.755-1.96c-.407-.843-.611-1.823-.611-2.94 0-1.118.204-2.103.611-2.955.412-.857.985-1.524 1.719-2.003.739-.483 1.6-.724 2.585-.724.568 0 1.13.095 1.683.284a4.162 4.162 0 0 1 1.513.923c.455.422.817.98 1.087 1.676s.405 1.553.405 2.571v.711h-8.409v-1.449h6.704c0-.616-.123-1.165-.369-1.648a2.782 2.782 0 0 0-1.037-1.143c-.445-.28-.971-.419-1.577-.419-.667 0-1.245.165-1.733.497a3.272 3.272 0 0 0-1.115 1.278 3.762 3.762 0 0 0-.39 1.69v.966c0 .824.142 1.523.426 2.096a3.074 3.074 0 0 0 1.2 1.299c.511.294 1.106.441 1.783.441.44 0 .838-.062 1.193-.185.36-.128.67-.317.93-.568.261-.256.462-.573.604-.952l1.619.455a3.584 3.584 0 0 1-.859 1.448c-.403.412-.9.734-1.492.966-.591.228-1.257.341-1.995.341ZM382.49 143l-3.324-10.909h1.762l2.358 8.352h.113l2.33-8.352h1.789l2.302 8.324h.113l2.358-8.324h1.762L390.729 143h-1.648l-2.386-8.381h-.171L384.138 143h-1.648Zm17.981.227c-1.051 0-1.958-.232-2.72-.696-.758-.469-1.342-1.122-1.754-1.96-.407-.843-.611-1.823-.611-2.94 0-1.118.204-2.103.611-2.955.412-.857.985-1.524 1.719-2.003.738-.483 1.6-.724 2.585-.724.568 0 1.129.095 1.683.284a4.17 4.17 0 0 1 1.513.923c.454.422.817.98 1.086 1.676.27.696.405 1.553.405 2.571v.711h-8.409v-1.449h6.705c0-.616-.123-1.165-.37-1.648a2.775 2.775 0 0 0-1.037-1.143c-.445-.28-.97-.419-1.576-.419-.668 0-1.245.165-1.733.497a3.264 3.264 0 0 0-1.115 1.278 3.75 3.75 0 0 0-.391 1.69v.966c0 .824.142 1.523.426 2.096a3.07 3.07 0 0 0 1.201 1.299c.511.294 1.105.441 1.782.441.441 0 .838-.062 1.193-.185.36-.128.67-.317.931-.568.26-.256.461-.573.604-.952l1.619.455a3.586 3.586 0 0 1-.86 1.448 4.18 4.18 0 0 1-1.491.966c-.592.228-1.257.341-1.996.341Zm11.641 0c-1.051 0-1.958-.232-2.72-.696a4.672 4.672 0 0 1-1.755-1.96c-.407-.843-.61-1.823-.61-2.94 0-1.118.203-2.103.61-2.955.412-.857.985-1.524 1.719-2.003.739-.483 1.601-.724 2.585-.724.569 0 1.13.095 1.684.284a4.159 4.159 0 0 1 1.512.923c.455.422.817.98 1.087 1.676s.405 1.553.405 2.571v.711h-8.409v-1.449h6.704c0-.616-.123-1.165-.369-1.648a2.775 2.775 0 0 0-1.037-1.143c-.445-.28-.971-.419-1.577-.419-.667 0-1.245.165-1.733.497a3.272 3.272 0 0 0-1.115 1.278 3.762 3.762 0 0 0-.39 1.69v.966c0 .824.142 1.523.426 2.096a3.074 3.074 0 0 0 1.2 1.299c.512.294 1.106.441 1.783.441.44 0 .838-.062 1.193-.185.36-.128.67-.317.93-.568.261-.256.462-.573.604-.952l1.619.455a3.573 3.573 0 0 1-.859 1.448 4.19 4.19 0 0 1-1.491.966c-.592.228-1.258.341-1.996.341Zm8.629-4.204-.028-2.074h.341l4.772-4.858h2.074l-5.085 5.142h-.142l-1.932 1.79ZM419.179 143v-14.545h1.676V143h-1.676Zm6.931 0-4.261-5.398 1.193-1.164 5.199 6.562h-2.131Zm5.396-14.545v5h-1.562v-5h1.562Zm10.712 6.079-1.505.426a2.808 2.808 0 0 0-.419-.731 2.025 2.025 0 0 0-.739-.597c-.312-.156-.713-.234-1.2-.234-.668 0-1.224.154-1.669.461-.441.303-.661.689-.661 1.158 0 .417.152.746.455.987.303.242.776.443 1.42.604l1.62.398c.975.236 1.702.599 2.18 1.086.478.483.717 1.106.717 1.868 0 .625-.18 1.184-.54 1.676-.355.493-.852.881-1.491 1.165-.639.284-1.383.426-2.23.426-1.113 0-2.034-.241-2.763-.724-.729-.483-1.191-1.189-1.385-2.117l1.591-.397c.152.587.438 1.027.859 1.321.427.293.983.44 1.669.44.782 0 1.402-.166 1.861-.497.464-.336.696-.739.696-1.208 0-.378-.132-.696-.397-.951-.266-.261-.673-.455-1.222-.583l-1.818-.426c-.999-.237-1.733-.603-2.202-1.101-.464-.502-.696-1.129-.696-1.882 0-.615.173-1.16.519-1.633.35-.474.826-.845 1.427-1.115.606-.27 1.293-.405 2.06-.405 1.079 0 1.927.237 2.542.71a3.826 3.826 0 0 1 1.321 1.875Zm13.092-2.443v1.42h-5.654v-1.42h5.654Zm-4.006-2.614h1.676v10.398c0 .473.069.829.206 1.065.142.232.322.389.54.469.222.076.457.114.703.114.185 0 .336-.01.455-.029l.284-.056.341 1.505a3.449 3.449 0 0 1-.476.128 3.529 3.529 0 0 1-.774.071c-.474 0-.938-.102-1.393-.305a2.777 2.777 0 0 1-1.122-.931c-.293-.416-.44-.942-.44-1.576v-10.853Zm10.842 13.75c-.985 0-1.849-.234-2.593-.703-.738-.469-1.316-1.124-1.733-1.967-.412-.843-.618-1.828-.618-2.955 0-1.136.206-2.128.618-2.976.417-.847.995-1.505 1.733-1.974.744-.469 1.608-.703 2.593-.703.984 0 1.846.234 2.585.703.743.469 1.321 1.127 1.733 1.974.416.848.625 1.84.625 2.976 0 1.127-.209 2.112-.625 2.955-.412.843-.99 1.498-1.733 1.967-.739.469-1.601.703-2.585.703Zm0-1.505c.748 0 1.363-.192 1.846-.576a3.387 3.387 0 0 0 1.073-1.512 5.797 5.797 0 0 0 .348-2.032 5.85 5.85 0 0 0-.348-2.038 3.433 3.433 0 0 0-1.073-1.527c-.483-.388-1.098-.582-1.846-.582-.749 0-1.364.194-1.847.582-.483.388-.84.897-1.072 1.527a5.85 5.85 0 0 0-.348 2.038c0 .729.116 1.407.348 2.032.232.625.589 1.129 1.072 1.512.483.384 1.098.576 1.847.576Zm7.501 5.369v-15h1.62v1.733h.199c.123-.19.293-.431.511-.725.222-.298.54-.563.952-.795.416-.237.98-.355 1.69-.355.919 0 1.728.23 2.429.689.701.459 1.248 1.11 1.641 1.953s.589 1.837.589 2.983c0 1.155-.196 2.157-.589 3.004-.393.843-.938 1.496-1.634 1.96-.696.46-1.499.689-2.408.689-.7 0-1.261-.116-1.683-.348-.421-.236-.746-.504-.973-.802a10.726 10.726 0 0 1-.525-.753h-.142v5.767h-1.677Zm1.648-9.546c0 .824.121 1.551.362 2.181.242.625.595 1.115 1.059 1.47.464.35 1.032.526 1.704.526.701 0 1.286-.185 1.754-.554.474-.374.829-.876 1.066-1.506.241-.635.362-1.34.362-2.117 0-.767-.118-1.458-.355-2.073-.232-.621-.585-1.111-1.058-1.471-.469-.364-1.059-.546-1.769-.546-.682 0-1.255.172-1.719.518-.464.341-.814.819-1.051 1.435-.237.61-.355 1.323-.355 2.137Zm17.841-1.107V143h-1.676v-10.909h1.619v1.704h.142a3.115 3.115 0 0 1 1.165-1.335c.521-.341 1.193-.511 2.017-.511.739 0 1.385.151 1.939.454.554.299.985.753 1.293 1.364.307.606.461 1.373.461 2.301V143h-1.676v-6.818c0-.857-.222-1.525-.668-2.003-.445-.483-1.055-.724-1.832-.724-.535 0-1.013.116-1.435.348-.416.232-.745.57-.987 1.015-.241.445-.362.985-.362 1.62Zm14.597 6.789c-1.051 0-1.958-.232-2.72-.696a4.664 4.664 0 0 1-1.754-1.96c-.408-.843-.611-1.823-.611-2.94 0-1.118.203-2.103.611-2.955.411-.857.984-1.524 1.718-2.003.739-.483 1.601-.724 2.585-.724.569 0 1.13.095 1.684.284a4.17 4.17 0 0 1 1.513.923c.454.422.816.98 1.086 1.676.27.696.405 1.553.405 2.571v.711h-8.409v-1.449h6.704c0-.616-.123-1.165-.369-1.648a2.775 2.775 0 0 0-1.037-1.143c-.445-.28-.97-.419-1.577-.419-.667 0-1.245.165-1.732.497a3.275 3.275 0 0 0-1.116 1.278 3.762 3.762 0 0 0-.39 1.69v.966c0 .824.142 1.523.426 2.096a3.074 3.074 0 0 0 1.2 1.299c.512.294 1.106.441 1.783.441.44 0 .838-.062 1.193-.185.36-.128.67-.317.931-.568.26-.256.461-.573.603-.952l1.62.455a3.586 3.586 0 0 1-.86 1.448 4.18 4.18 0 0 1-1.491.966c-.592.228-1.257.341-1.996.341Zm9.538-.227-3.324-10.909h1.762l2.358 8.352h.113l2.33-8.352h1.79l2.301 8.324h.113l2.358-8.324h1.762L521.51 143h-1.648l-2.386-8.381h-.171L514.919 143h-1.648Zm21.506-8.466-1.506.426a2.753 2.753 0 0 0-.419-.731 2.03 2.03 0 0 0-.738-.597c-.313-.156-.713-.234-1.201-.234-.667 0-1.224.154-1.669.461-.44.303-.66.689-.66 1.158 0 .417.151.746.454.987.303.242.777.443 1.421.604l1.619.398c.976.236 1.702.599 2.181 1.086.478.483.717 1.106.717 1.868 0 .625-.18 1.184-.54 1.676-.355.493-.852.881-1.491 1.165-.64.284-1.383.426-2.231.426-1.112 0-2.033-.241-2.762-.724-.729-.483-1.191-1.189-1.385-2.117l1.591-.397c.151.587.438 1.027.859 1.321.426.293.983.44 1.669.44.781 0 1.402-.166 1.861-.497.464-.336.696-.739.696-1.208 0-.378-.133-.696-.398-.951-.265-.261-.672-.455-1.221-.583l-1.819-.426c-.999-.237-1.733-.603-2.201-1.101-.464-.502-.696-1.129-.696-1.882 0-.615.172-1.16.518-1.633.351-.474.826-.845 1.428-1.115.606-.27 1.292-.405 2.059-.405 1.08 0 1.927.237 2.543.71a3.832 3.832 0 0 1 1.321 1.875Zm11.557 8.722a4.442 4.442 0 0 1-1.882-.391 3.228 3.228 0 0 1-1.342-1.143c-.332-.502-.497-1.108-.497-1.819 0-.625.123-1.131.369-1.519a2.61 2.61 0 0 1 .987-.924 5.216 5.216 0 0 1 1.364-.497 16.367 16.367 0 0 1 1.513-.27c.662-.085 1.2-.149 1.612-.192.416-.047.719-.125.909-.234.194-.109.291-.298.291-.568v-.057c0-.701-.192-1.245-.575-1.633-.379-.389-.954-.583-1.726-.583-.8 0-1.428.175-1.882.526-.455.35-.774.724-.959 1.122l-1.591-.568c.284-.663.663-1.179 1.136-1.549a4.266 4.266 0 0 1 1.563-.781 6.508 6.508 0 0 1 1.676-.227c.35 0 .753.042 1.207.128.46.08.902.248 1.329.504.43.256.788.642 1.072 1.158.284.516.426 1.207.426 2.073V143h-1.676v-1.477h-.085c-.114.236-.303.49-.568.76-.266.27-.618.499-1.059.689-.44.189-.977.284-1.612.284Zm.256-1.506c.663 0 1.221-.13 1.676-.391.459-.26.805-.596 1.037-1.008.237-.412.355-.845.355-1.3v-1.534c-.071.085-.227.163-.469.234a7.636 7.636 0 0 1-.824.178c-.307.047-.608.09-.902.128a40.94 40.94 0 0 0-.703.085 6.396 6.396 0 0 0-1.221.277c-.374.123-.677.31-.909.561-.228.246-.341.582-.341 1.009 0 .582.215 1.022.646 1.321.436.293.987.44 1.655.44Zm9.48-5.312V143h-1.677v-10.909h1.62v1.704h.142a3.115 3.115 0 0 1 1.165-1.335c.52-.341 1.193-.511 2.017-.511.738 0 1.385.151 1.939.454.554.299.984.753 1.292 1.364.308.606.462 1.373.462 2.301V143h-1.676v-6.818c0-.857-.223-1.525-.668-2.003-.445-.483-1.056-.724-1.832-.724-.535 0-1.014.116-1.435.348-.417.232-.746.57-.987 1.015-.242.445-.362.985-.362 1.62Zm14.142 6.789c-.909 0-1.712-.229-2.408-.689-.696-.464-1.24-1.117-1.633-1.96-.393-.847-.59-1.849-.59-3.004 0-1.146.197-2.14.59-2.983.393-.843.94-1.494 1.64-1.953.701-.459 1.511-.689 2.429-.689.711 0 1.272.118 1.684.355.416.232.734.497.951.795.223.294.396.535.519.725h.142v-5.369h1.676V143h-1.619v-1.676h-.199c-.123.199-.298.45-.526.753-.227.298-.551.566-.973.802-.421.232-.982.348-1.683.348Zm.227-1.505c.673 0 1.241-.176 1.705-.526.464-.355.817-.845 1.058-1.47.242-.63.362-1.357.362-2.181 0-.814-.118-1.527-.355-2.137-.237-.616-.587-1.094-1.051-1.435-.464-.346-1.037-.518-1.719-.518-.71 0-1.302.182-1.775.546-.469.36-.822.85-1.059 1.471-.232.615-.348 1.306-.348 2.073 0 .777.119 1.482.356 2.117.241.63.596 1.132 1.065 1.506.473.369 1.061.554 1.761.554Zm16.911 1.534a4.435 4.435 0 0 1-1.882-.391 3.23 3.23 0 0 1-1.343-1.143c-.331-.502-.497-1.108-.497-1.819 0-.625.123-1.131.37-1.519a2.61 2.61 0 0 1 .987-.924 5.21 5.21 0 0 1 1.363-.497 16.427 16.427 0 0 1 1.513-.27c.663-.085 1.2-.149 1.612-.192.417-.047.72-.125.909-.234.195-.109.292-.298.292-.568v-.057c0-.701-.192-1.245-.576-1.633-.378-.389-.954-.583-1.725-.583-.801 0-1.428.175-1.883.526-.454.35-.774.724-.958 1.122l-1.591-.568c.284-.663.663-1.179 1.136-1.549a4.259 4.259 0 0 1 1.563-.781 6.503 6.503 0 0 1 1.676-.227c.35 0 .753.042 1.207.128.459.08.902.248 1.328.504.431.256.789.642 1.073 1.158.284.516.426 1.207.426 2.073V143h-1.676v-1.477h-.086c-.113.236-.303.49-.568.76-.265.27-.618.499-1.058.689-.44.189-.978.284-1.612.284Zm.255-1.506c.663 0 1.222-.13 1.677-.391.459-.26.805-.596 1.037-1.008.236-.412.355-.845.355-1.3v-1.534c-.071.085-.228.163-.469.234a7.689 7.689 0 0 1-.824.178c-.308.047-.608.09-.902.128-.289.033-.523.061-.703.085a6.406 6.406 0 0 0-1.222.277c-.374.123-.677.31-.909.561-.227.246-.341.582-.341 1.009 0 .582.216 1.022.647 1.321.435.293.987.44 1.654.44Zm7.804 1.25v-10.909h1.619v1.648h.114c.199-.54.559-.978 1.08-1.314a3.177 3.177 0 0 1 1.761-.505c.123 0 .277.003.462.008.184.004.324.011.419.021v1.704a5.397 5.397 0 0 0-.391-.064 3.867 3.867 0 0 0-.632-.049c-.53 0-1.004.111-1.421.334-.411.217-.738.52-.98.909a2.454 2.454 0 0 0-.355 1.314V143h-1.676Zm12.869-10.909v1.42h-5.653v-1.42h5.653Zm-4.005-2.614h1.676v10.398c0 .473.069.829.206 1.065.142.232.322.389.54.469.222.076.457.114.703.114.184 0 .336-.01.454-.029l.284-.056.341 1.505a3.37 3.37 0 0 1-.476.128 3.516 3.516 0 0 1-.774.071c-.473 0-.937-.102-1.392-.305a2.764 2.764 0 0 1-1.122-.931c-.293-.416-.44-.942-.44-1.576v-10.853ZM610.8 143v-10.909h1.676V143H610.8Zm.852-12.727c-.327 0-.608-.112-.845-.334a1.073 1.073 0 0 1-.348-.803c0-.312.116-.58.348-.802a1.19 1.19 0 0 1 .845-.334c.327 0 .606.111.838.334.237.222.355.49.355.802 0 .313-.118.58-.355.803a1.169 1.169 0 0 1-.838.334Zm8.326 12.954c-1.023 0-1.904-.241-2.642-.724-.739-.483-1.307-1.148-1.705-1.996-.398-.847-.597-1.816-.597-2.905 0-1.108.204-2.085.611-2.933.412-.852.985-1.517 1.719-1.996.739-.483 1.6-.724 2.585-.724.767 0 1.459.142 2.074.426a3.97 3.97 0 0 1 1.513 1.193c.393.512.637 1.108.731 1.79h-1.676c-.128-.497-.412-.938-.852-1.321-.436-.388-1.023-.582-1.761-.582-.654 0-1.227.17-1.719.511-.488.336-.869.812-1.144 1.427-.269.611-.404 1.329-.404 2.152 0 .843.132 1.577.397 2.202.27.625.649 1.11 1.137 1.456.492.346 1.07.519 1.733.519.435 0 .831-.076 1.186-.228.355-.151.655-.369.902-.653.246-.284.421-.625.525-1.023h1.676a3.874 3.874 0 0 1-2.173 2.962c-.606.298-1.311.447-2.116.447Zm8.416-14.772V143h-1.676v-14.545h1.676Zm7.644 14.772c-1.051 0-1.958-.232-2.721-.696a4.677 4.677 0 0 1-1.754-1.96c-.407-.843-.611-1.823-.611-2.94 0-1.118.204-2.103.611-2.955.412-.857.985-1.524 1.719-2.003.739-.483 1.6-.724 2.585-.724.568 0 1.129.095 1.683.284a4.162 4.162 0 0 1 1.513.923c.455.422.817.98 1.087 1.676s.405 1.553.405 2.571v.711h-8.409v-1.449h6.704c0-.616-.123-1.165-.369-1.648a2.782 2.782 0 0 0-1.037-1.143c-.445-.28-.971-.419-1.577-.419-.667 0-1.245.165-1.733.497a3.272 3.272 0 0 0-1.115 1.278 3.762 3.762 0 0 0-.39 1.69v.966c0 .824.142 1.523.426 2.096a3.074 3.074 0 0 0 1.2 1.299c.511.294 1.106.441 1.783.441.44 0 .838-.062 1.193-.185.36-.128.67-.317.93-.568.261-.256.462-.573.604-.952l1.619.455a3.584 3.584 0 0 1-.859 1.448c-.403.412-.9.734-1.492.966-.591.228-1.257.341-1.995.341Zm14.794-8.693-1.506.426a2.78 2.78 0 0 0-.419-.731 2.025 2.025 0 0 0-.739-.597c-.312-.156-.712-.234-1.2-.234-.668 0-1.224.154-1.669.461-.44.303-.661.689-.661 1.158 0 .417.152.746.455.987.303.242.777.443 1.42.604l1.62.398c.975.236 1.702.599 2.18 1.086.478.483.718 1.106.718 1.868 0 .625-.18 1.184-.54 1.676-.355.493-.853.881-1.492 1.165-.639.284-1.382.426-2.23.426-1.113 0-2.033-.241-2.763-.724-.729-.483-1.19-1.189-1.385-2.117l1.591-.397c.152.587.438 1.027.86 1.321.426.293.982.44 1.669.44.781 0 1.401-.166 1.861-.497.464-.336.696-.739.696-1.208 0-.378-.133-.696-.398-.951-.265-.261-.672-.455-1.222-.583l-1.818-.426c-.999-.237-1.733-.603-2.202-1.101-.464-.502-.696-1.129-.696-1.882 0-.615.173-1.16.519-1.633.35-.474.826-.845 1.427-1.115.606-.27 1.293-.405 2.06-.405 1.08 0 1.927.237 2.543.71a3.839 3.839 0 0 1 1.321 1.875Zm13.205-2.443v1.42h-5.881v-1.42h5.881ZM659.917 143v-12.415c0-.625.147-1.146.441-1.562a2.726 2.726 0 0 1 1.143-.938 3.621 3.621 0 0 1 1.484-.312c.412 0 .749.033 1.009.099.26.066.455.128.582.185l-.483 1.449a7.58 7.58 0 0 0-.355-.107 2.173 2.173 0 0 0-.582-.064c-.554 0-.954.14-1.2.419-.242.28-.363.689-.363 1.229V143h-1.676Zm6.469 0v-10.909h1.619v1.648h.114c.198-.54.558-.978 1.079-1.314a3.18 3.18 0 0 1 1.762-.505c.123 0 .277.003.461.008.185.004.325.011.419.021v1.704a5.436 5.436 0 0 0-.39-.064 3.87 3.87 0 0 0-.633-.049c-.53 0-1.003.111-1.42.334-.412.217-.739.52-.98.909a2.445 2.445 0 0 0-.355 1.314V143h-1.676Zm11.541.227c-.985 0-1.849-.234-2.592-.703-.739-.469-1.317-1.124-1.733-1.967-.412-.843-.618-1.828-.618-2.955 0-1.136.206-2.128.618-2.976.416-.847.994-1.505 1.733-1.974.743-.469 1.607-.703 2.592-.703.985 0 1.846.234 2.585.703.743.469 1.321 1.127 1.733 1.974.417.848.625 1.84.625 2.976 0 1.127-.208 2.112-.625 2.955-.412.843-.99 1.498-1.733 1.967-.739.469-1.6.703-2.585.703Zm0-1.505c.748 0 1.363-.192 1.846-.576a3.387 3.387 0 0 0 1.073-1.512 5.797 5.797 0 0 0 .348-2.032 5.85 5.85 0 0 0-.348-2.038 3.433 3.433 0 0 0-1.073-1.527c-.483-.388-1.098-.582-1.846-.582s-1.364.194-1.847.582c-.483.388-.84.897-1.072 1.527a5.85 5.85 0 0 0-.348 2.038c0 .729.116 1.407.348 2.032.232.625.589 1.129 1.072 1.512.483.384 1.099.576 1.847.576Zm7.502 1.278v-10.909h1.619v1.704h.142a2.739 2.739 0 0 1 1.101-1.356c.506-.327 1.115-.49 1.825-.49.72 0 1.319.163 1.797.49.483.322.859.774 1.129 1.356h.114a3.179 3.179 0 0 1 1.257-1.342c.559-.336 1.229-.504 2.01-.504.975 0 1.773.305 2.393.916.621.606.931 1.551.931 2.834V143h-1.676v-7.301c0-.805-.221-1.38-.661-1.726-.44-.346-.959-.518-1.555-.518-.767 0-1.362.232-1.783.696-.421.459-.632 1.041-.632 1.747V143h-1.705v-7.472c0-.62-.201-1.119-.603-1.498-.403-.384-.921-.575-1.556-.575-.435 0-.842.116-1.221.348a2.633 2.633 0 0 0-.909.965c-.228.408-.341.879-.341 1.414V143h-1.676Zm-647.15 23.091v1.42h-5.654v-1.42h5.653Zm-4.006-2.614h1.676v10.398c0 .473.069.829.206 1.065.142.232.322.389.54.469.222.076.456.114.703.114.184 0 .336-.01.454-.029l.284-.056.341 1.505a3.411 3.411 0 0 1-.476.128 3.524 3.524 0 0 1-.774.071c-.473 0-.937-.102-1.392-.305a2.767 2.767 0 0 1-1.122-.931c-.294-.416-.44-.942-.44-1.576v-10.853Zm8.437 6.961V177h-1.676v-14.545h1.676v5.34h.142c.256-.563.64-1.01 1.15-1.342.517-.336 1.203-.504 2.06-.504.744 0 1.395.149 1.954.447.558.294.992.746 1.3 1.357.312.606.468 1.378.468 2.315V177h-1.676v-6.818c0-.867-.225-1.537-.675-2.01-.445-.478-1.063-.717-1.853-.717-.55 0-1.042.116-1.478.348-.43.232-.771.57-1.022 1.015-.247.445-.37.985-.37 1.62Zm14.714 6.789c-1.05 0-1.957-.232-2.72-.696a4.673 4.673 0 0 1-1.754-1.96c-.407-.843-.61-1.823-.61-2.94 0-1.118.203-2.103.61-2.955.412-.857.985-1.524 1.719-2.003.738-.483 1.6-.724 2.585-.724.568 0 1.13.095 1.683.284a4.166 4.166 0 0 1 1.513.923c.454.422.817.98 1.087 1.676s.404 1.553.404 2.571v.711h-8.409v-1.449h6.705c0-.616-.123-1.165-.37-1.648a2.779 2.779 0 0 0-1.036-1.143c-.446-.28-.971-.419-1.577-.419-.668 0-1.245.165-1.733.497a3.268 3.268 0 0 0-1.115 1.278 3.757 3.757 0 0 0-.39 1.69v.966c0 .824.141 1.523.425 2.096a3.071 3.071 0 0 0 1.2 1.299c.512.294 1.106.441 1.783.441.44 0 .838-.062 1.194-.185.36-.128.67-.317.93-.568.26-.256.462-.573.604-.952l1.619.455a3.586 3.586 0 0 1-.86 1.448 4.185 4.185 0 0 1-1.49.966c-.593.228-1.258.341-1.997.341Zm12.92-.227v-14.545h4.914c1.141 0 2.074.206 2.799.617.729.408 1.268.959 1.619 1.655.35.696.525 1.473.525 2.33s-.175 1.636-.525 2.336c-.346.701-.88 1.26-1.605 1.677-.725.412-1.653.618-2.784.618h-3.523v-1.563h3.466c.781 0 1.408-.135 1.882-.405.473-.27.817-.634 1.03-1.094.218-.464.326-.987.326-1.569 0-.583-.109-1.103-.326-1.563a2.33 2.33 0 0 0-1.037-1.079c-.479-.265-1.113-.398-1.904-.398h-3.096V177h-1.762Zm16.782.227c-.985 0-1.849-.234-2.592-.703-.739-.469-1.317-1.124-1.733-1.967-.412-.843-.618-1.828-.618-2.955 0-1.136.206-2.128.618-2.976.416-.847.994-1.505 1.733-1.974.743-.469 1.607-.703 2.592-.703.985 0 1.847.234 2.585.703.744.469 1.321 1.127 1.733 1.974.417.848.625 1.84.625 2.976 0 1.127-.208 2.112-.625 2.955-.412.843-.99 1.498-1.733 1.967-.738.469-1.6.703-2.585.703Zm0-1.505c.748 0 1.364-.192 1.847-.576.483-.383.84-.887 1.072-1.512a5.797 5.797 0 0 0 .348-2.032 5.85 5.85 0 0 0-.348-2.038 3.44 3.44 0 0 0-1.072-1.527c-.483-.388-1.099-.582-1.847-.582s-1.364.194-1.847.582c-.483.388-.84.897-1.072 1.527a5.85 5.85 0 0 0-.348 2.038c0 .729.116 1.407.348 2.032.232.625.59 1.129 1.073 1.512.482.384 1.098.576 1.846.576ZM96.728 177l-3.323-10.909h1.76l2.359 8.352h.113l2.33-8.352h1.79l2.301 8.324h.114l2.357-8.324h1.762L104.967 177h-1.648l-2.386-8.381h-.171L98.376 177h-1.648Zm17.982.227c-1.052 0-1.958-.232-2.721-.696a4.677 4.677 0 0 1-1.754-1.96c-.407-.843-.611-1.823-.611-2.94 0-1.118.204-2.103.611-2.955.412-.857.985-1.524 1.719-2.003.738-.483 1.6-.724 2.585-.724.568 0 1.129.095 1.683.284a4.162 4.162 0 0 1 1.513.923c.455.422.817.98 1.087 1.676s.405 1.553.405 2.571v.711h-8.41v-1.449h6.705c0-.616-.123-1.165-.369-1.648a2.782 2.782 0 0 0-1.037-1.143c-.445-.28-.971-.419-1.577-.419-.668 0-1.245.165-1.733.497a3.264 3.264 0 0 0-1.115 1.278 3.762 3.762 0 0 0-.391 1.69v.966c0 .824.142 1.523.427 2.096a3.062 3.062 0 0 0 1.2 1.299c.511.294 1.105.441 1.783.441.44 0 .838-.062 1.193-.185.36-.128.67-.317.93-.568.261-.256.462-.573.604-.952l1.619.455a3.584 3.584 0 0 1-.859 1.448c-.403.412-.9.734-1.492.966-.592.228-1.257.341-1.995.341Zm7.066-.227v-10.909h1.62v1.648h.113c.199-.54.559-.978 1.08-1.314a3.18 3.18 0 0 1 1.761-.505c.123 0 .277.003.462.008.184.004.324.011.419.021v1.704a5.397 5.397 0 0 0-.391-.064 3.858 3.858 0 0 0-.632-.049 2.96 2.96 0 0 0-1.42.334 2.446 2.446 0 0 0-1.336 2.223V177h-1.676Zm13.294 0v-14.545h5.085c1.013 0 1.849.175 2.507.525.658.346 1.148.812 1.47 1.399.322.583.483 1.229.483 1.939 0 .625-.111 1.141-.333 1.548-.218.408-.507.73-.867.966a3.944 3.944 0 0 1-1.158.526v.142c.446.028.893.185 1.343.469.45.284.826.691 1.129 1.221.303.531.455 1.179.455 1.946 0 .73-.166 1.385-.498 1.968-.331.582-.854 1.044-1.569 1.385-.715.341-1.646.511-2.791.511h-5.256Zm1.761-1.562h3.495c1.15 0 1.967-.223 2.45-.668.488-.45.731-.994.731-1.634a2.59 2.59 0 0 0-.376-1.363 2.72 2.72 0 0 0-1.072-1.009c-.464-.255-1.014-.383-1.648-.383h-3.58v5.057Zm0-6.591h3.267c.531 0 1.009-.105 1.435-.313a2.505 2.505 0 0 0 1.023-.881c.255-.378.383-.823.383-1.335 0-.639-.222-1.181-.667-1.626-.445-.45-1.151-.675-2.117-.675h-3.324v4.83Zm13.008-6.392V177h-1.761v-14.545h1.761Zm13.503 14.772c-1.051 0-1.958-.232-2.72-.696a4.677 4.677 0 0 1-1.754-1.96c-.407-.843-.611-1.823-.611-2.94 0-1.118.204-2.103.611-2.955.412-.857.985-1.524 1.719-2.003.738-.483 1.6-.724 2.585-.724.568 0 1.129.095 1.683.284a4.17 4.17 0 0 1 1.513.923c.454.422.817.98 1.087 1.676.269.696.404 1.553.404 2.571v.711h-8.409v-1.449h6.705c0-.616-.123-1.165-.369-1.648a2.788 2.788 0 0 0-1.037-1.143c-.445-.28-.971-.419-1.577-.419-.668 0-1.245.165-1.733.497a3.264 3.264 0 0 0-1.115 1.278 3.75 3.75 0 0 0-.391 1.69v.966c0 .824.142 1.523.426 2.096a3.07 3.07 0 0 0 1.201 1.299c.511.294 1.105.441 1.782.441.441 0 .838-.062 1.194-.185.359-.128.669-.317.93-.568.26-.256.462-.573.604-.952l1.619.455a3.595 3.595 0 0 1-.859 1.448c-.403.412-.9.734-1.492.966-.592.228-1.257.341-1.996.341Zm11.499 0c-1.023 0-1.903-.241-2.642-.724-.739-.483-1.307-1.148-1.705-1.996-.397-.847-.596-1.816-.596-2.905 0-1.108.203-2.085.611-2.933.411-.852.984-1.517 1.718-1.996.739-.483 1.601-.724 2.585-.724.768 0 1.459.142 2.074.426a3.97 3.97 0 0 1 1.513 1.193c.393.512.637 1.108.732 1.79h-1.676c-.128-.497-.412-.938-.853-1.321-.435-.388-1.022-.582-1.761-.582-.653 0-1.226.17-1.719.511-.488.336-.869.812-1.143 1.427-.27.611-.405 1.329-.405 2.152 0 .843.132 1.577.398 2.202.269.625.648 1.11 1.136 1.456.492.346 1.07.519 1.733.519.436 0 .831-.076 1.186-.228a2.44 2.44 0 0 0 .902-.653c.246-.284.421-.625.526-1.023h1.676a3.886 3.886 0 0 1-.703 1.74 3.93 3.93 0 0 1-1.471 1.222c-.606.298-1.311.447-2.116.447Zm11.172 0c-.985 0-1.849-.234-2.593-.703-.738-.469-1.316-1.124-1.732-1.967-.412-.843-.618-1.828-.618-2.955 0-1.136.206-2.128.618-2.976.416-.847.994-1.505 1.732-1.974.744-.469 1.608-.703 2.593-.703.985 0 1.846.234 2.585.703.743.469 1.321 1.127 1.733 1.974.417.848.625 1.84.625 2.976 0 1.127-.208 2.112-.625 2.955-.412.843-.99 1.498-1.733 1.967-.739.469-1.6.703-2.585.703Zm0-1.505c.748 0 1.363-.192 1.846-.576a3.387 3.387 0 0 0 1.073-1.512 5.797 5.797 0 0 0 .348-2.032 5.85 5.85 0 0 0-.348-2.038 3.433 3.433 0 0 0-1.073-1.527c-.483-.388-1.098-.582-1.846-.582s-1.364.194-1.847.582c-.483.388-.84.897-1.072 1.527a5.85 5.85 0 0 0-.348 2.038c0 .729.116 1.407.348 2.032.232.625.589 1.129 1.072 1.512.483.384 1.099.576 1.847.576Zm15.229-7.188-1.506.426a2.78 2.78 0 0 0-.419-.731 2.025 2.025 0 0 0-.739-.597c-.312-.156-.712-.234-1.2-.234-.667 0-1.224.154-1.669.461-.44.303-.66.689-.66 1.158 0 .417.151.746.454.987.303.242.777.443 1.421.604l1.619.398c.975.236 1.702.599 2.18 1.086.479.483.718 1.106.718 1.868 0 .625-.18 1.184-.54 1.676-.355.493-.852.881-1.492 1.165-.639.284-1.382.426-2.23.426-1.112 0-2.033-.241-2.762-.724-.73-.483-1.191-1.189-1.385-2.117l1.591-.397c.151.587.437 1.027.859 1.321.426.293.982.44 1.669.44.781 0 1.401-.166 1.861-.497.464-.336.696-.739.696-1.208 0-.378-.133-.696-.398-.951-.265-.261-.672-.455-1.222-.583l-1.818-.426c-.999-.237-1.733-.603-2.201-1.101-.464-.502-.696-1.129-.696-1.882 0-.615.172-1.16.518-1.633.35-.474.826-.845 1.428-1.115.606-.27 1.292-.405 2.059-.405 1.08 0 1.927.237 2.543.71a3.839 3.839 0 0 1 1.321 1.875Zm3.801 12.557a3.7 3.7 0 0 1-.76-.071 2 2 0 0 1-.461-.128l.426-1.477c.407.104.767.142 1.079.113a1.29 1.29 0 0 0 .831-.419c.247-.246.471-.646.675-1.2l.313-.852-4.034-10.966h1.818l3.011 8.693h.114l3.011-8.693h1.818l-4.63 12.5c-.209.563-.467 1.03-.775 1.399a2.897 2.897 0 0 1-1.072.831c-.403.18-.857.27-1.364.27Zm17.781-12.557-1.506.426a2.78 2.78 0 0 0-.419-.731 2.03 2.03 0 0 0-.738-.597c-.313-.156-.713-.234-1.201-.234-.667 0-1.224.154-1.669.461-.44.303-.66.689-.66 1.158 0 .417.151.746.454.987.303.242.777.443 1.421.604l1.619.398c.975.236 1.702.599 2.18 1.086.479.483.718 1.106.718 1.868 0 .625-.18 1.184-.54 1.676-.355.493-.852.881-1.492 1.165-.639.284-1.382.426-2.23.426-1.112 0-2.033-.241-2.762-.724-.73-.483-1.191-1.189-1.385-2.117l1.591-.397c.151.587.438 1.027.859 1.321.426.293.982.44 1.669.44.781 0 1.401-.166 1.861-.497.464-.336.696-.739.696-1.208 0-.378-.133-.696-.398-.951-.265-.261-.672-.455-1.222-.583l-1.818-.426c-.999-.237-1.733-.603-2.201-1.101-.464-.502-.696-1.129-.696-1.882 0-.615.172-1.16.518-1.633.35-.474.826-.845 1.428-1.115.606-.27 1.292-.405 2.059-.405 1.08 0 1.927.237 2.543.71a3.839 3.839 0 0 1 1.321 1.875Zm7.466-2.443v1.42h-5.653v-1.42h5.653Zm-4.006-2.614h1.677v10.398c0 .473.068.829.206 1.065.142.232.322.389.539.469.223.076.457.114.703.114.185 0 .337-.01.455-.029l.284-.056.341 1.505a3.41 3.41 0 0 1-.476.128 3.523 3.523 0 0 1-.774.071c-.473 0-.938-.102-1.392-.305a2.764 2.764 0 0 1-1.122-.931c-.294-.416-.441-.942-.441-1.576v-10.853Zm10.984 13.75c-1.051 0-1.958-.232-2.72-.696-.758-.469-1.342-1.122-1.754-1.96-.408-.843-.611-1.823-.611-2.94 0-1.118.203-2.103.611-2.955.412-.857.985-1.524 1.718-2.003.739-.483 1.601-.724 2.586-.724.568 0 1.129.095 1.683.284a4.17 4.17 0 0 1 1.513.923c.454.422.816.98 1.086 1.676.27.696.405 1.553.405 2.571v.711h-8.409v-1.449h6.705c0-.616-.123-1.165-.37-1.648a2.775 2.775 0 0 0-1.037-1.143c-.445-.28-.97-.419-1.576-.419-.668 0-1.246.165-1.733.497a3.264 3.264 0 0 0-1.115 1.278 3.75 3.75 0 0 0-.391 1.69v.966c0 .824.142 1.523.426 2.096a3.074 3.074 0 0 0 1.2 1.299c.512.294 1.106.441 1.783.441.44 0 .838-.062 1.193-.185.36-.128.67-.317.931-.568.26-.256.461-.573.603-.952l1.62.455a3.586 3.586 0 0 1-.86 1.448 4.18 4.18 0 0 1-1.491.966c-.592.228-1.257.341-1.996.341Zm7.067-.227v-10.909h1.619v1.704h.142a2.744 2.744 0 0 1 1.101-1.356c.507-.327 1.115-.49 1.825-.49.72 0 1.319.163 1.797.49.483.322.86.774 1.13 1.356h.113c.28-.563.699-1.01 1.257-1.342.559-.336 1.229-.504 2.01-.504.976 0 1.773.305 2.394.916.62.606.93 1.551.93 2.834V177h-1.676v-7.301c0-.805-.22-1.38-.661-1.726-.44-.346-.958-.518-1.555-.518-.767 0-1.361.232-1.783.696-.421.459-.632 1.041-.632 1.747V177h-1.704v-7.472c0-.62-.202-1.119-.604-1.498-.402-.384-.921-.575-1.555-.575-.436 0-.843.116-1.222.348a2.633 2.633 0 0 0-.909.965c-.227.408-.341.879-.341 1.414V177h-1.676Zm19.883-1.989-.114.767a15.49 15.49 0 0 1-.369 1.733 31.724 31.724 0 0 1-.505 1.74c-.175.545-.319.978-.433 1.3h-1.278l.241-1.2c.1-.497.199-1.054.299-1.669.104-.611.189-1.236.255-1.875l.086-.796h1.818Zm11.94 2.245a4.442 4.442 0 0 1-1.882-.391 3.228 3.228 0 0 1-1.342-1.143c-.331-.502-.497-1.108-.497-1.819 0-.625.123-1.131.369-1.519a2.61 2.61 0 0 1 .987-.924 5.216 5.216 0 0 1 1.364-.497 16.367 16.367 0 0 1 1.513-.27c.663-.085 1.2-.149 1.612-.192.417-.047.72-.125.909-.234.194-.109.291-.298.291-.568v-.057c0-.701-.192-1.245-.575-1.633-.379-.389-.954-.583-1.726-.583-.8 0-1.427.175-1.882.526-.455.35-.774.724-.959 1.122l-1.591-.568c.284-.663.663-1.179 1.137-1.549a4.262 4.262 0 0 1 1.562-.781 6.508 6.508 0 0 1 1.676-.227c.351 0 .753.042 1.208.128.459.08.902.248 1.328.504.431.256.788.642 1.072 1.158.284.516.426 1.207.426 2.073V177h-1.676v-1.477h-.085c-.114.236-.303.49-.568.76-.265.27-.618.499-1.058.689-.441.189-.978.284-1.613.284Zm.256-1.506c.663 0 1.222-.13 1.676-.391.459-.26.805-.596 1.037-1.008.237-.412.355-.845.355-1.3v-1.534c-.071.085-.227.163-.469.234a7.666 7.666 0 0 1-.823.178c-.308.047-.609.09-.902.128a38.62 38.62 0 0 0-.703.085 6.406 6.406 0 0 0-1.222.277c-.374.123-.677.31-.909.561-.227.246-.341.582-.341 1.009 0 .582.215 1.022.646 1.321.436.293.987.44 1.655.44Zm9.48-13.295V177h-1.676v-14.545h1.676Zm4.746 0V177h-1.676v-14.545h1.676Zm8.695 18.636v-15h1.619v1.733h.199c.123-.19.294-.431.511-.725.223-.298.54-.563.952-.795.417-.237.98-.355 1.69-.355.919 0 1.729.23 2.429.689.701.459 1.248 1.11 1.641 1.953s.59 1.837.59 2.983c0 1.155-.197 2.157-.59 3.004-.393.843-.937 1.496-1.633 1.96-.696.46-1.499.689-2.408.689-.701 0-1.262-.116-1.683-.348-.422-.236-.746-.504-.973-.802a10.46 10.46 0 0 1-.526-.753h-.142v5.767h-1.676Zm1.648-9.546c0 .824.12 1.551.362 2.181.241.625.594 1.115 1.058 1.47.464.35 1.032.526 1.705.526.7 0 1.285-.185 1.754-.554.473-.374.828-.876 1.065-1.506.242-.635.362-1.34.362-2.117 0-.767-.118-1.458-.355-2.073-.232-.621-.584-1.111-1.058-1.471-.469-.364-1.058-.546-1.768-.546-.682 0-1.255.172-1.719.518-.464.341-.815.819-1.051 1.435-.237.61-.355 1.323-.355 2.137ZM311.522 177v-10.909h1.62v1.648h.113c.199-.54.559-.978 1.08-1.314a3.18 3.18 0 0 1 1.761-.505c.123 0 .277.003.462.008.185.004.324.011.419.021v1.704a5.397 5.397 0 0 0-.391-.064 3.858 3.858 0 0 0-.632-.049 2.96 2.96 0 0 0-1.42.334c-.412.217-.739.52-.98.909a2.445 2.445 0 0 0-.355 1.314V177h-1.677Zm11.684.227c-1.052 0-1.958-.232-2.721-.696a4.677 4.677 0 0 1-1.754-1.96c-.407-.843-.611-1.823-.611-2.94 0-1.118.204-2.103.611-2.955.412-.857.985-1.524 1.719-2.003.739-.483 1.6-.724 2.585-.724.568 0 1.129.095 1.683.284a4.162 4.162 0 0 1 1.513.923c.455.422.817.98 1.087 1.676s.405 1.553.405 2.571v.711h-8.409v-1.449h6.704c0-.616-.123-1.165-.369-1.648a2.782 2.782 0 0 0-1.037-1.143c-.445-.28-.971-.419-1.577-.419-.667 0-1.245.165-1.733.497a3.272 3.272 0 0 0-1.115 1.278 3.762 3.762 0 0 0-.39 1.69v.966c0 .824.142 1.523.426 2.096a3.068 3.068 0 0 0 1.2 1.299c.511.294 1.106.441 1.783.441.44 0 .838-.062 1.193-.185.36-.128.67-.317.93-.568.261-.256.462-.573.604-.952l1.619.455a3.584 3.584 0 0 1-.859 1.448c-.403.412-.9.734-1.492.966-.592.228-1.257.341-1.995.341ZM338 168.534l-1.506.426a2.78 2.78 0 0 0-.419-.731 2.025 2.025 0 0 0-.739-.597c-.312-.156-.712-.234-1.2-.234-.668 0-1.224.154-1.669.461-.44.303-.661.689-.661 1.158 0 .417.152.746.455.987.303.242.777.443 1.42.604l1.62.398c.975.236 1.702.599 2.18 1.086.478.483.718 1.106.718 1.868 0 .625-.18 1.184-.54 1.676-.355.493-.853.881-1.492 1.165-.639.284-1.382.426-2.23.426-1.113 0-2.033-.241-2.763-.724-.729-.483-1.19-1.189-1.385-2.117l1.591-.397c.152.587.438 1.027.86 1.321.426.293.982.44 1.669.44.781 0 1.401-.166 1.861-.497.464-.336.696-.739.696-1.208 0-.378-.133-.696-.398-.951-.265-.261-.673-.455-1.222-.583l-1.818-.426c-.999-.237-1.733-.603-2.202-1.101-.464-.502-.696-1.129-.696-1.882 0-.615.173-1.16.519-1.633.35-.474.826-.845 1.427-1.115.606-.27 1.293-.405 2.06-.405 1.08 0 1.927.237 2.543.71a3.839 3.839 0 0 1 1.321 1.875Zm7.295 8.693c-1.051 0-1.957-.232-2.72-.696a4.677 4.677 0 0 1-1.754-1.96c-.407-.843-.611-1.823-.611-2.94 0-1.118.204-2.103.611-2.955.412-.857.985-1.524 1.719-2.003.738-.483 1.6-.724 2.585-.724.568 0 1.129.095 1.683.284a4.17 4.17 0 0 1 1.513.923c.455.422.817.98 1.087 1.676s.404 1.553.404 2.571v.711h-8.409v-1.449h6.705c0-.616-.123-1.165-.369-1.648a2.782 2.782 0 0 0-1.037-1.143c-.445-.28-.971-.419-1.577-.419-.668 0-1.245.165-1.733.497a3.264 3.264 0 0 0-1.115 1.278 3.762 3.762 0 0 0-.391 1.69v.966c0 .824.142 1.523.426 2.096a3.07 3.07 0 0 0 1.201 1.299c.511.294 1.105.441 1.782.441.441 0 .839-.062 1.194-.185.359-.128.67-.317.93-.568.26-.256.462-.573.604-.952l1.619.455a3.584 3.584 0 0 1-.859 1.448c-.403.412-.9.734-1.492.966-.592.228-1.257.341-1.996.341Zm8.743-6.789V177h-1.676v-10.909h1.62v1.704h.142a3.113 3.113 0 0 1 1.164-1.335c.521-.341 1.194-.511 2.017-.511.739 0 1.385.151 1.939.454.554.299.985.753 1.293 1.364.308.606.462 1.373.462 2.301V177h-1.677v-6.818c0-.857-.222-1.525-.667-2.003-.445-.483-1.056-.724-1.833-.724-.535 0-1.013.116-1.434.348-.417.232-.746.57-.987 1.015-.242.445-.363.985-.363 1.62Zm14.768-4.347v1.42h-5.654v-1.42h5.654Zm-4.006-2.614h1.676v10.398c0 .473.069.829.206 1.065.142.232.322.389.54.469.222.076.457.114.703.114.185 0 .336-.01.455-.029l.284-.056.341 1.505a3.449 3.449 0 0 1-.476.128 3.529 3.529 0 0 1-.774.071c-.474 0-.938-.102-1.392-.305a2.773 2.773 0 0 1-1.123-.931c-.293-.416-.44-.942-.44-1.576v-10.853Zm10.984 13.75c-1.051 0-1.958-.232-2.72-.696a4.672 4.672 0 0 1-1.755-1.96c-.407-.843-.61-1.823-.61-2.94 0-1.118.203-2.103.61-2.955.412-.857.985-1.524 1.719-2.003.739-.483 1.6-.724 2.585-.724.568 0 1.13.095 1.684.284a4.167 4.167 0 0 1 1.512.923c.455.422.817.98 1.087 1.676s.405 1.553.405 2.571v.711h-8.409v-1.449h6.704c0-.616-.123-1.165-.369-1.648a2.782 2.782 0 0 0-1.037-1.143c-.445-.28-.971-.419-1.577-.419-.667 0-1.245.165-1.733.497a3.272 3.272 0 0 0-1.115 1.278 3.762 3.762 0 0 0-.39 1.69v.966c0 .824.142 1.523.426 2.096a3.074 3.074 0 0 0 1.2 1.299c.511.294 1.106.441 1.783.441.44 0 .838-.062 1.193-.185.36-.128.67-.317.93-.568.261-.256.462-.573.604-.952l1.619.455a3.584 3.584 0 0 1-.859 1.448c-.403.412-.9.734-1.492.966-.591.228-1.257.341-1.995.341Zm11.186 0c-.909 0-1.712-.229-2.408-.689-.696-.464-1.24-1.117-1.633-1.96-.393-.847-.59-1.849-.59-3.004 0-1.146.197-2.14.59-2.983.393-.843.939-1.494 1.64-1.953.701-.459 1.511-.689 2.429-.689.71 0 1.272.118 1.683.355.417.232.734.497.952.795.223.294.396.535.519.725h.142v-5.369h1.676V177h-1.62v-1.676h-.198c-.123.199-.299.45-.526.753-.227.298-.552.566-.973.802-.421.232-.982.348-1.683.348Zm.227-1.505c.672 0 1.241-.176 1.705-.526.464-.355.816-.845 1.058-1.47.241-.63.362-1.357.362-2.181 0-.814-.118-1.527-.355-2.137-.237-.616-.587-1.094-1.051-1.435-.464-.346-1.037-.518-1.719-.518-.71 0-1.302.182-1.775.546-.469.36-.822.85-1.059 1.471-.232.615-.348 1.306-.348 2.073 0 .777.119 1.482.355 2.117.242.63.597 1.132 1.066 1.506.473.369 1.06.554 1.761.554Zm18.445-9.631v1.42h-5.654v-1.42h5.654Zm-4.006-2.614h1.676v10.398c0 .473.069.829.206 1.065.142.232.322.389.54.469.222.076.457.114.703.114.185 0 .336-.01.455-.029l.284-.056.341 1.505a3.449 3.449 0 0 1-.476.128 3.529 3.529 0 0 1-.774.071c-.474 0-.938-.102-1.392-.305a2.773 2.773 0 0 1-1.123-.931c-.293-.416-.44-.942-.44-1.576v-10.853Zm10.842 13.75c-.985 0-1.849-.234-2.593-.703-.738-.469-1.316-1.124-1.733-1.967-.412-.843-.618-1.828-.618-2.955 0-1.136.206-2.128.618-2.976.417-.847.995-1.505 1.733-1.974.744-.469 1.608-.703 2.593-.703.984 0 1.846.234 2.585.703.743.469 1.321 1.127 1.733 1.974.416.848.625 1.84.625 2.976 0 1.127-.209 2.112-.625 2.955-.412.843-.99 1.498-1.733 1.967-.739.469-1.601.703-2.585.703Zm0-1.505c.748 0 1.363-.192 1.846-.576a3.387 3.387 0 0 0 1.073-1.512 5.797 5.797 0 0 0 .348-2.032 5.85 5.85 0 0 0-.348-2.038 3.433 3.433 0 0 0-1.073-1.527c-.483-.388-1.098-.582-1.846-.582s-1.364.194-1.847.582c-.483.388-.84.897-1.072 1.527a5.85 5.85 0 0 0-.348 2.038c0 .729.116 1.407.348 2.032.232.625.589 1.129 1.072 1.512.483.384 1.099.576 1.847.576Zm14.206 5.369a3.7 3.7 0 0 1-.76-.071 2.012 2.012 0 0 1-.462-.128l.426-1.477c.408.104.768.142 1.08.113a1.29 1.29 0 0 0 .831-.419c.246-.246.471-.646.675-1.2l.312-.852-4.034-10.966h1.818l3.012 8.693h.113l3.012-8.693h1.818l-4.631 12.5c-.208.563-.466 1.03-.774 1.399a2.905 2.905 0 0 1-1.072.831c-.403.18-.857.27-1.364.27Zm14.094-3.864c-.984 0-1.849-.234-2.592-.703-.739-.469-1.316-1.124-1.733-1.967-.412-.843-.618-1.828-.618-2.955 0-1.136.206-2.128.618-2.976.417-.847.994-1.505 1.733-1.974.743-.469 1.608-.703 2.592-.703.985 0 1.847.234 2.586.703.743.469 1.321 1.127 1.733 1.974.416.848.625 1.84.625 2.976 0 1.127-.209 2.112-.625 2.955-.412.843-.99 1.498-1.733 1.967-.739.469-1.601.703-2.586.703Zm0-1.505c.749 0 1.364-.192 1.847-.576.483-.383.84-.887 1.072-1.512a5.797 5.797 0 0 0 .348-2.032 5.85 5.85 0 0 0-.348-2.038c-.232-.63-.589-1.139-1.072-1.527-.483-.388-1.098-.582-1.847-.582-.748 0-1.363.194-1.846.582a3.433 3.433 0 0 0-1.073 1.527 5.85 5.85 0 0 0-.348 2.038c0 .729.116 1.407.348 2.032.232.625.59 1.129 1.073 1.512.483.384 1.098.576 1.846.576Zm14.377-3.182v-6.449h1.676V177h-1.676v-1.847h-.113a3.582 3.582 0 0 1-1.194 1.414c-.539.383-1.221.575-2.045.575-.682 0-1.288-.149-1.818-.447-.531-.303-.947-.758-1.25-1.364-.303-.611-.455-1.38-.455-2.308v-6.932h1.676v6.818c0 .796.223 1.43.668 1.903.45.474 1.023.711 1.719.711.416 0 .84-.107 1.271-.32.436-.213.8-.54 1.094-.98.298-.44.447-1.001.447-1.683Zm10.371 4.46v-10.909h1.676V177h-1.676Zm.853-12.727c-.327 0-.609-.112-.846-.334a1.073 1.073 0 0 1-.348-.803c0-.312.116-.58.348-.802.237-.223.519-.334.846-.334.326 0 .606.111.838.334.236.222.355.49.355.802 0 .313-.119.58-.355.803a1.17 1.17 0 0 1-.838.334Zm5.57 6.165V177h-1.677v-10.909h1.62v1.704h.142a3.109 3.109 0 0 1 1.165-1.335c.52-.341 1.193-.511 2.017-.511.738 0 1.384.151 1.938.454.554.299.985.753 1.293 1.364.308.606.462 1.373.462 2.301V177h-1.676v-6.818c0-.857-.223-1.525-.668-2.003-.445-.483-1.056-.724-1.832-.724-.535 0-1.014.116-1.435.348-.417.232-.746.57-.987 1.015-.242.445-.362.985-.362 1.62Zm20.079 6.789c-.984 0-1.849-.234-2.592-.703-.739-.469-1.316-1.124-1.733-1.967-.412-.843-.618-1.828-.618-2.955 0-1.136.206-2.128.618-2.976.417-.847.994-1.505 1.733-1.974.743-.469 1.608-.703 2.592-.703.985 0 1.847.234 2.586.703.743.469 1.321 1.127 1.733 1.974.416.848.625 1.84.625 2.976 0 1.127-.209 2.112-.625 2.955-.412.843-.99 1.498-1.733 1.967-.739.469-1.601.703-2.586.703Zm0-1.505c.749 0 1.364-.192 1.847-.576.483-.383.84-.887 1.072-1.512a5.797 5.797 0 0 0 .348-2.032 5.85 5.85 0 0 0-.348-2.038c-.232-.63-.589-1.139-1.072-1.527-.483-.388-1.098-.582-1.847-.582-.748 0-1.363.194-1.846.582a3.433 3.433 0 0 0-1.073 1.527 5.85 5.85 0 0 0-.348 2.038c0 .729.116 1.407.348 2.032.232.625.59 1.129 1.073 1.512.483.384 1.098.576 1.846.576Zm9.178-5.284V177h-1.676v-10.909h1.62v1.704h.142a3.106 3.106 0 0 1 1.164-1.335c.521-.341 1.194-.511 2.017-.511.739 0 1.385.151 1.939.454.554.299.985.753 1.293 1.364.308.606.462 1.373.462 2.301V177h-1.677v-6.818c0-.857-.222-1.525-.667-2.003-.445-.483-1.056-.724-1.833-.724-.535 0-1.013.116-1.434.348-.417.232-.746.57-.987 1.015-.242.445-.363.985-.363 1.62Zm14.597 6.789c-1.051 0-1.958-.232-2.72-.696a4.677 4.677 0 0 1-1.754-1.96c-.407-.843-.611-1.823-.611-2.94 0-1.118.204-2.103.611-2.955.412-.857.985-1.524 1.719-2.003.738-.483 1.6-.724 2.585-.724.568 0 1.129.095 1.683.284a4.17 4.17 0 0 1 1.513.923c.454.422.817.98 1.086 1.676.27.696.405 1.553.405 2.571v.711h-8.409v-1.449h6.705c0-.616-.123-1.165-.37-1.648a2.78 2.78 0 0 0-1.036-1.143c-.446-.28-.971-.419-1.577-.419-.668 0-1.245.165-1.733.497a3.264 3.264 0 0 0-1.115 1.278 3.75 3.75 0 0 0-.391 1.69v.966c0 .824.142 1.523.426 2.096a3.07 3.07 0 0 0 1.201 1.299c.511.294 1.105.441 1.782.441.441 0 .838-.062 1.193-.185.36-.128.67-.317.931-.568.26-.256.461-.573.604-.952l1.619.455a3.586 3.586 0 0 1-.86 1.448 4.18 4.18 0 0 1-1.491.966c-.592.228-1.257.341-1.996.341Zm9.567-2.216-.114.767c-.08.54-.203 1.118-.369 1.733a32.656 32.656 0 0 1-.504 1.74c-.175.545-.32.978-.433 1.3h-1.279l.242-1.2c.099-.497.199-1.054.298-1.669.104-.611.189-1.236.256-1.875l.085-.796h1.818Zm10.407-4.573V177H534.1v-14.545h1.677v5.34h.142a3.085 3.085 0 0 1 1.15-1.342c.516-.336 1.203-.504 2.06-.504.743 0 1.394.149 1.953.447.559.294.992.746 1.3 1.357.312.606.468 1.378.468 2.315V177h-1.676v-6.818c0-.867-.225-1.537-.674-2.01-.445-.478-1.063-.717-1.854-.717-.549 0-1.042.116-1.477.348-.431.232-.772.57-1.023 1.015-.246.445-.369.985-.369 1.62Zm13.35 6.818a4.438 4.438 0 0 1-1.882-.391 3.228 3.228 0 0 1-1.342-1.143c-.332-.502-.497-1.108-.497-1.819 0-.625.123-1.131.369-1.519a2.61 2.61 0 0 1 .987-.924 5.216 5.216 0 0 1 1.364-.497 16.406 16.406 0 0 1 1.512-.27 72.061 72.061 0 0 1 1.613-.192c.416-.047.719-.125.909-.234.194-.109.291-.298.291-.568v-.057c0-.701-.192-1.245-.575-1.633-.379-.389-.954-.583-1.726-.583-.8 0-1.428.175-1.882.526-.455.35-.774.724-.959 1.122l-1.591-.568c.284-.663.663-1.179 1.136-1.549a4.266 4.266 0 0 1 1.563-.781 6.508 6.508 0 0 1 1.676-.227c.35 0 .753.042 1.207.128.46.08.902.248 1.329.504.43.256.788.642 1.072 1.158.284.516.426 1.207.426 2.073V177h-1.676v-1.477h-.085c-.114.236-.303.49-.568.76-.266.27-.618.499-1.059.689-.44.189-.977.284-1.612.284Zm.256-1.506c.663 0 1.221-.13 1.676-.391.459-.26.805-.596 1.037-1.008.237-.412.355-.845.355-1.3v-1.534c-.071.085-.227.163-.469.234a7.636 7.636 0 0 1-.824.178c-.307.047-.608.09-.902.128a40.94 40.94 0 0 0-.703.085 6.396 6.396 0 0 0-1.221.277c-.374.123-.677.31-.909.561-.228.246-.341.582-.341 1.009 0 .582.215 1.022.646 1.321.436.293.987.44 1.655.44Zm9.48-5.312V177h-1.677v-10.909h1.62v1.704h.142a3.109 3.109 0 0 1 1.165-1.335c.52-.341 1.193-.511 2.017-.511.738 0 1.385.151 1.939.454.554.299.984.753 1.292 1.364.308.606.462 1.373.462 2.301V177h-1.676v-6.818c0-.857-.223-1.525-.668-2.003-.445-.483-1.056-.724-1.832-.724-.535 0-1.014.116-1.435.348-.417.232-.746.57-.987 1.015-.242.445-.362.985-.362 1.62Zm14.142 6.789c-.909 0-1.712-.229-2.408-.689-.696-.464-1.24-1.117-1.633-1.96-.393-.847-.59-1.849-.59-3.004 0-1.146.197-2.14.59-2.983.393-.843.94-1.494 1.64-1.953.701-.459 1.511-.689 2.429-.689.711 0 1.272.118 1.684.355.416.232.734.497.951.795.223.294.396.535.519.725h.142v-5.369h1.676V177h-1.619v-1.676h-.199c-.123.199-.299.45-.526.753-.227.298-.551.566-.973.802-.421.232-.982.348-1.683.348Zm.227-1.505c.673 0 1.241-.176 1.705-.526.464-.355.817-.845 1.058-1.47.242-.63.362-1.357.362-2.181 0-.814-.118-1.527-.355-2.137-.237-.616-.587-1.094-1.051-1.435-.464-.346-1.037-.518-1.719-.518-.71 0-1.302.182-1.775.546-.469.36-.822.85-1.059 1.471-.232.615-.348 1.306-.348 2.073 0 .777.119 1.482.356 2.117.241.63.596 1.132 1.065 1.506.473.369 1.06.554 1.761.554Zm9.155 5.369a3.7 3.7 0 0 1-.76-.071 2.028 2.028 0 0 1-.462-.128l.427-1.477c.407.104.767.142 1.079.113a1.29 1.29 0 0 0 .831-.419c.246-.246.471-.646.675-1.2l.312-.852-4.034-10.966h1.818l3.012 8.693h.113l3.012-8.693h1.818l-4.631 12.5c-.208.563-.466 1.03-.774 1.399a2.905 2.905 0 0 1-1.072.831c-.403.18-.857.27-1.364.27Zm17.354-10.653V177h-1.676v-10.909h1.62v1.704h.142a3.113 3.113 0 0 1 1.164-1.335c.521-.341 1.194-.511 2.018-.511.738 0 1.384.151 1.938.454.554.299.985.753 1.293 1.364.308.606.462 1.373.462 2.301V177h-1.676v-6.818c0-.857-.223-1.525-.668-2.003-.445-.483-1.056-.724-1.832-.724-.535 0-1.014.116-1.435.348-.417.232-.746.57-.987 1.015-.242.445-.363.985-.363 1.62Zm14.597 6.789c-1.051 0-1.957-.232-2.72-.696a4.677 4.677 0 0 1-1.754-1.96c-.407-.843-.611-1.823-.611-2.94 0-1.118.204-2.103.611-2.955.412-.857.985-1.524 1.719-2.003.738-.483 1.6-.724 2.585-.724.568 0 1.129.095 1.683.284a4.17 4.17 0 0 1 1.513.923c.455.422.817.98 1.087 1.676s.404 1.553.404 2.571v.711h-8.409v-1.449h6.705c0-.616-.123-1.165-.369-1.648a2.788 2.788 0 0 0-1.037-1.143c-.445-.28-.971-.419-1.577-.419-.668 0-1.245.165-1.733.497a3.264 3.264 0 0 0-1.115 1.278 3.762 3.762 0 0 0-.391 1.69v.966c0 .824.142 1.523.426 2.096a3.07 3.07 0 0 0 1.201 1.299c.511.294 1.105.441 1.782.441.441 0 .838-.062 1.194-.185.359-.128.67-.317.93-.568.26-.256.462-.573.604-.952l1.619.455a3.584 3.584 0 0 1-.859 1.448c-.403.412-.9.734-1.492.966-.592.228-1.257.341-1.996.341Zm9.539-.227-3.324-10.909h1.761l2.358 8.352h.114l2.329-8.352h1.79l2.301 8.324h.114l2.358-8.324h1.761L632.115 177h-1.647l-2.387-8.381h-.17L625.525 177h-1.648Zm21.505-8.466-1.505.426a2.808 2.808 0 0 0-.419-.731 2.025 2.025 0 0 0-.739-.597c-.312-.156-.712-.234-1.2-.234-.668 0-1.224.154-1.669.461-.441.303-.661.689-.661 1.158 0 .417.152.746.455.987.303.242.776.443 1.42.604l1.62.398c.975.236 1.702.599 2.18 1.086.478.483.717 1.106.717 1.868 0 .625-.18 1.184-.539 1.676-.356.493-.853.881-1.492 1.165-.639.284-1.383.426-2.23.426-1.113 0-2.034-.241-2.763-.724-.729-.483-1.191-1.189-1.385-2.117l1.591-.397c.152.587.438 1.027.86 1.321.426.293.982.44 1.669.44.781 0 1.401-.166 1.86-.497.464-.336.696-.739.696-1.208 0-.378-.132-.696-.397-.951-.266-.261-.673-.455-1.222-.583l-1.818-.426c-.999-.237-1.733-.603-2.202-1.101-.464-.502-.696-1.129-.696-1.882 0-.615.173-1.16.519-1.633.35-.474.826-.845 1.427-1.115.606-.27 1.293-.405 2.06-.405 1.079 0 1.927.237 2.542.71a3.826 3.826 0 0 1 1.321 1.875Zm4.399-6.079V177h-1.677v-14.545h1.677Zm7.643 14.772c-1.051 0-1.957-.232-2.72-.696a4.677 4.677 0 0 1-1.754-1.96c-.407-.843-.611-1.823-.611-2.94 0-1.118.204-2.103.611-2.955.412-.857.985-1.524 1.719-2.003.738-.483 1.6-.724 2.585-.724.568 0 1.129.095 1.683.284a4.17 4.17 0 0 1 1.513.923c.454.422.817.98 1.087 1.676.269.696.404 1.553.404 2.571v.711h-8.409v-1.449h6.705c0-.616-.123-1.165-.369-1.648a2.788 2.788 0 0 0-1.037-1.143c-.445-.28-.971-.419-1.577-.419-.668 0-1.245.165-1.733.497a3.264 3.264 0 0 0-1.115 1.278 3.75 3.75 0 0 0-.391 1.69v.966c0 .824.142 1.523.426 2.096a3.07 3.07 0 0 0 1.201 1.299c.511.294 1.105.441 1.782.441.441 0 .838-.062 1.194-.185.359-.128.67-.317.93-.568.26-.256.462-.573.604-.952l1.619.455a3.595 3.595 0 0 1-.859 1.448c-.403.412-.9.734-1.492.966-.592.228-1.257.341-1.996.341Zm11.811-11.136v1.42h-5.653v-1.42h5.653Zm-4.005-2.614h1.676v10.398c0 .473.069.829.206 1.065.142.232.322.389.54.469.222.076.457.114.703.114.184 0 .336-.01.454-.029l.284-.056.341 1.505a3.37 3.37 0 0 1-.476.128 3.516 3.516 0 0 1-.774.071c-.473 0-.937-.102-1.392-.305a2.764 2.764 0 0 1-1.122-.931c-.293-.416-.44-.942-.44-1.576v-10.853Zm11.271 2.614v1.42h-5.653v-1.42h5.653Zm-4.006-2.614h1.677v10.398c0 .473.068.829.205 1.065.143.232.322.389.54.469.223.076.457.114.703.114.185 0 .337-.01.455-.029l.284-.056.341 1.505a3.41 3.41 0 0 1-.476.128 3.529 3.529 0 0 1-.774.071c-.474 0-.938-.102-1.392-.305a2.764 2.764 0 0 1-1.122-.931c-.294-.416-.441-.942-.441-1.576v-10.853Zm10.984 13.75c-1.051 0-1.958-.232-2.72-.696-.758-.469-1.342-1.122-1.754-1.96-.408-.843-.611-1.823-.611-2.94 0-1.118.203-2.103.611-2.955.412-.857.984-1.524 1.718-2.003.739-.483 1.601-.724 2.586-.724.568 0 1.129.095 1.683.284a4.17 4.17 0 0 1 1.513.923c.454.422.816.98 1.086 1.676.27.696.405 1.553.405 2.571v.711h-8.409v-1.449h6.705c0-.616-.124-1.165-.37-1.648a2.775 2.775 0 0 0-1.037-1.143c-.445-.28-.97-.419-1.576-.419-.668 0-1.246.165-1.733.497a3.264 3.264 0 0 0-1.115 1.278 3.75 3.75 0 0 0-.391 1.69v.966c0 .824.142 1.523.426 2.096a3.074 3.074 0 0 0 1.2 1.299c.512.294 1.106.441 1.783.441.44 0 .838-.062 1.193-.185.36-.128.67-.317.931-.568.26-.256.461-.573.603-.952l1.62.455a3.586 3.586 0 0 1-.86 1.448 4.18 4.18 0 0 1-1.491.966c-.592.228-1.257.341-1.996.341Zm7.067-.227v-10.909h1.619v1.648h.114c.199-.54.558-.978 1.079-1.314a3.18 3.18 0 0 1 1.762-.505c.123 0 .277.003.461.008.185.004.325.011.419.021v1.704a5.332 5.332 0 0 0-.39-.064 3.867 3.867 0 0 0-.632-.049c-.531 0-1.004.111-1.421.334a2.51 2.51 0 0 0-.98.909 2.445 2.445 0 0 0-.355 1.314V177h-1.676Zm9.657-14.545-.142 10.454h-1.648l-.142-10.454h1.932Zm-.966 14.659c-.35 0-.651-.126-.902-.377a1.229 1.229 0 0 1-.376-.902c0-.35.125-.651.376-.902a1.23 1.23 0 0 1 .902-.376c.351 0 .651.125.902.376s.377.552.377.902c0 .232-.06.445-.178.639a1.314 1.314 0 0 1-.462.469 1.213 1.213 0 0 1-.639.171Z" class="Power BI Weekly is a collation of the week's top news and articles from ecosystem, all presented to you in one, handy newsletter!"/>
      <g class="Frame 3">
        <g class="Frame 2">
          <path fill="black" d="M94.219 238.5h-2.906c-.172-.836-.473-1.57-.903-2.203a6.012 6.012 0 0 0-1.547-1.594 6.56 6.56 0 0 0-2.004-.984 7.994 7.994 0 0 0-2.296-.328c-1.454 0-2.77.367-3.95 1.101-1.172.735-2.105 1.817-2.8 3.246-.688 1.43-1.032 3.184-1.032 5.262 0 2.078.344 3.832 1.031 5.262.696 1.429 1.63 2.511 2.801 3.246 1.18.734 2.496 1.101 3.95 1.101a7.99 7.99 0 0 0 2.296-.328 6.743 6.743 0 0 0 2.004-.972 6.182 6.182 0 0 0 1.547-1.606c.43-.641.73-1.375.903-2.203h2.906c-.219 1.227-.617 2.324-1.196 3.293a9.002 9.002 0 0 1-2.156 2.473 9.471 9.471 0 0 1-2.894 1.535 10.81 10.81 0 0 1-3.41.527c-2.047 0-3.868-.5-5.461-1.5-1.594-1-2.848-2.422-3.762-4.266-.914-1.843-1.371-4.031-1.371-6.562 0-2.531.457-4.719 1.37-6.562.915-1.844 2.169-3.266 3.763-4.266 1.593-1 3.414-1.5 5.46-1.5 1.211 0 2.348.176 3.41.527a9.31 9.31 0 0 1 2.895 1.547 8.837 8.837 0 0 1 2.156 2.461c.579.961.977 2.059 1.196 3.293Zm7.087-7.5v24H98.54v-24h2.766Zm5.065 24v-18h2.766v18h-2.766Zm1.406-21a1.965 1.965 0 0 1-1.394-.551 1.767 1.767 0 0 1-.574-1.324c0-.516.191-.957.574-1.324.39-.367.855-.551 1.394-.551.539 0 1 .184 1.383.551.391.367.586.808.586 1.324s-.195.957-.586 1.324a1.928 1.928 0 0 1-1.383.551Zm13.738 21.375c-1.688 0-3.141-.398-4.36-1.195-1.218-.797-2.156-1.895-2.812-3.293-.656-1.399-.985-2.996-.985-4.793 0-1.828.336-3.442 1.008-4.84.68-1.406 1.625-2.504 2.836-3.293 1.219-.797 2.641-1.195 4.266-1.195 1.265 0 2.406.234 3.422.703a6.56 6.56 0 0 1 2.496 1.968c.648.844 1.051 1.829 1.207 2.954h-2.766c-.211-.821-.68-1.547-1.406-2.18-.719-.641-1.688-.961-2.906-.961-1.078 0-2.024.281-2.836.844-.805.554-1.434 1.34-1.887 2.355-.445 1.008-.668 2.192-.668 3.551 0 1.391.219 2.602.656 3.633.446 1.031 1.071 1.832 1.875 2.402.813.57 1.766.856 2.86.856.718 0 1.371-.125 1.957-.375a4.033 4.033 0 0 0 1.488-1.079 4.131 4.131 0 0 0 .867-1.687h2.766a6.405 6.405 0 0 1-1.16 2.871c-.61.844-1.418 1.516-2.426 2.016-1 .492-2.164.738-3.492.738Zm13.699-6.938-.047-3.421h.562l7.875-8.016h3.422l-8.39 8.484h-.235l-3.187 2.953ZM132.636 255v-24h2.765v24h-2.765Zm11.437 0-7.031-8.906 1.969-1.922L147.589 255h-3.516Zm18.56-10.828V255h-2.766v-24h2.766v8.812h.234a5.09 5.09 0 0 1 1.899-2.214c.851-.555 1.984-.832 3.398-.832 1.227 0 2.301.246 3.223.738.922.484 1.636 1.23 2.144 2.238.516 1 .774 2.274.774 3.821V255h-2.766v-11.25c0-1.43-.371-2.535-1.113-3.316-.735-.789-1.754-1.184-3.059-1.184-.906 0-1.719.191-2.437.574a4.2 4.2 0 0 0-1.688 1.676c-.406.734-.609 1.625-.609 2.672Zm24.278 11.203c-1.734 0-3.23-.383-4.488-1.148-1.25-.774-2.215-1.852-2.895-3.235-.672-1.39-1.007-3.008-1.007-4.851 0-1.844.335-3.469 1.007-4.875.68-1.414 1.625-2.516 2.836-3.305 1.219-.797 2.641-1.195 4.266-1.195.937 0 1.863.156 2.777.468a6.892 6.892 0 0 1 2.496 1.524c.75.695 1.348 1.617 1.793 2.765.446 1.149.668 2.563.668 4.243v1.171h-13.875v-2.39h11.063c0-1.016-.203-1.922-.61-2.719a4.584 4.584 0 0 0-1.711-1.887c-.734-.461-1.601-.691-2.601-.691-1.102 0-2.055.273-2.859.82a5.386 5.386 0 0 0-1.84 2.11 6.193 6.193 0 0 0-.645 2.789v1.594c0 1.359.235 2.511.703 3.457.477.937 1.137 1.652 1.981 2.144.843.484 1.824.727 2.941.727.727 0 1.383-.102 1.969-.305a4.203 4.203 0 0 0 1.535-.938c.43-.421.762-.945.996-1.57l2.672.75a5.929 5.929 0 0 1-1.418 2.391c-.664.679-1.484 1.211-2.461 1.593-.976.376-2.074.563-3.293.563Zm11.66-.375v-18h2.672v2.719h.188c.328-.891.922-1.614 1.781-2.168.859-.555 1.828-.832 2.906-.832.203 0 .457.004.762.011.305.008.535.02.691.036v2.812a8.487 8.487 0 0 0-.644-.105 6.31 6.31 0 0 0-1.043-.082c-.875 0-1.656.183-2.344.55-.68.36-1.219.86-1.617 1.5-.391.633-.586 1.356-.586 2.168V255h-2.766Zm19.278.375c-1.735 0-3.231-.383-4.489-1.148-1.25-.774-2.214-1.852-2.894-3.235-.672-1.39-1.008-3.008-1.008-4.851 0-1.844.336-3.469 1.008-4.875.68-1.414 1.625-2.516 2.836-3.305 1.219-.797 2.64-1.195 4.265-1.195.938 0 1.864.156 2.778.468a6.892 6.892 0 0 1 2.496 1.524c.75.695 1.347 1.617 1.793 2.765.445 1.149.668 2.563.668 4.243v1.171h-13.875v-2.39h11.062c0-1.016-.203-1.922-.609-2.719a4.598 4.598 0 0 0-1.711-1.887c-.734-.461-1.602-.691-2.602-.691-1.101 0-2.054.273-2.859.82a5.394 5.394 0 0 0-1.84 2.11 6.192 6.192 0 0 0-.644 2.789v1.594c0 1.359.234 2.511.703 3.457.476.937 1.136 1.652 1.98 2.144.844.484 1.824.727 2.942.727.726 0 1.382-.102 1.968-.305a4.207 4.207 0 0 0 1.536-.938c.429-.421.761-.945.996-1.57l2.672.75a5.94 5.94 0 0 1-1.418 2.391c-.665.679-1.485 1.211-2.461 1.593-.977.376-2.075.563-3.293.563Z" class="Click here"/>
          <rect width="231" height="68" x="34" y="209" stroke="black" stroke-width="4" rx="4"/>
        </g>
        <path fill="black" d="M298.844 255.375c-1.625 0-3.051-.387-4.278-1.16-1.218-.774-2.171-1.856-2.859-3.246-.68-1.391-1.019-3.016-1.019-4.875 0-1.875.339-3.512 1.019-4.91.688-1.399 1.641-2.485 2.859-3.258 1.227-.774 2.653-1.16 4.278-1.16 1.625 0 3.047.386 4.265 1.16 1.227.773 2.18 1.859 2.86 3.258.687 1.398 1.031 3.035 1.031 4.91 0 1.859-.344 3.484-1.031 4.875-.68 1.39-1.633 2.472-2.86 3.246-1.218.773-2.64 1.16-4.265 1.16Zm0-2.484c1.234 0 2.25-.317 3.047-.95.797-.632 1.386-1.464 1.769-2.496.383-1.031.574-2.148.574-3.351 0-1.203-.191-2.324-.574-3.364-.383-1.039-.972-1.878-1.769-2.519-.797-.641-1.813-.961-3.047-.961-1.235 0-2.25.32-3.047.961-.797.641-1.387 1.48-1.77 2.519-.382 1.04-.574 2.161-.574 3.364 0 1.203.192 2.32.574 3.351.383 1.032.973 1.864 1.77 2.496.797.633 1.812.95 3.047.95ZM311.222 255v-18h2.672v2.719h.187c.328-.891.922-1.614 1.781-2.168.86-.555 1.828-.832 2.907-.832.203 0 .457.004.761.011.305.008.535.02.692.036v2.812a8.644 8.644 0 0 0-.645-.105 6.31 6.31 0 0 0-1.043-.082c-.875 0-1.656.183-2.344.55-.679.36-1.218.86-1.617 1.5-.39.633-.586 1.356-.586 2.168V255h-2.765Zm36.278-18-6.656 18h-2.813l-6.656-18h3l4.969 14.344h.187L344.5 237h3Zm3.65 18v-18h2.766v18h-2.766Zm1.407-21a1.97 1.97 0 0 1-1.395-.551 1.767 1.767 0 0 1-.574-1.324c0-.516.191-.957.574-1.324a1.97 1.97 0 0 1 1.395-.551c.539 0 1 .184 1.382.551.391.367.586.808.586 1.324s-.195.957-.586 1.324a1.924 1.924 0 0 1-1.382.551Zm19.174 7.031-2.484.703a4.632 4.632 0 0 0-.691-1.207c-.297-.398-.703-.726-1.219-.984-.516-.258-1.176-.387-1.981-.387-1.101 0-2.019.254-2.753.762-.727.5-1.09 1.137-1.09 1.91 0 .688.25 1.231.75 1.629.5.398 1.281.73 2.343.996l2.672.656c1.61.391 2.809.989 3.598 1.793.789.797 1.184 1.825 1.184 3.082a4.569 4.569 0 0 1-.891 2.766c-.586.812-1.406 1.453-2.461 1.922-1.055.469-2.281.703-3.68.703-1.836 0-3.355-.398-4.558-1.195-1.203-.797-1.965-1.961-2.285-3.493l2.625-.656c.25.969.722 1.696 1.418 2.18.703.484 1.621.727 2.753.727 1.29 0 2.313-.274 3.071-.821.765-.555 1.148-1.219 1.148-1.992 0-.625-.219-1.148-.656-1.57-.438-.43-1.109-.75-2.016-.961l-3-.703c-1.648-.391-2.859-.996-3.632-1.817-.766-.828-1.149-1.863-1.149-3.105 0-1.016.285-1.914.856-2.696.578-.781 1.363-1.394 2.355-1.839 1-.446 2.133-.668 3.398-.668 1.782 0 3.18.39 4.196 1.171 1.023.782 1.75 1.813 2.179 3.094ZM376.223 255v-18h2.765v18h-2.765Zm1.406-21a1.97 1.97 0 0 1-1.395-.551 1.77 1.77 0 0 1-.574-1.324c0-.516.192-.957.574-1.324a1.97 1.97 0 0 1 1.395-.551c.539 0 1 .184 1.383.551.39.367.586.808.586 1.324s-.196.957-.586 1.324a1.928 1.928 0 0 1-1.383.551Zm14.253 3v2.344h-9.328V237h9.328Zm-6.61-4.313h2.766v17.157c0 .781.113 1.367.34 1.758.234.382.531.64.891.773a3.57 3.57 0 0 0 1.16.187c.304 0 .554-.015.75-.046l.468-.094.563 2.484a5.503 5.503 0 0 1-.785.211c-.336.078-.762.117-1.278.117a5.563 5.563 0 0 1-2.296-.504 4.546 4.546 0 0 1-1.852-1.535c-.484-.687-.727-1.554-.727-2.601v-17.907Zm20.051 29.063V237h2.672v2.859h.328c.203-.312.485-.711.844-1.195.367-.492.891-.93 1.57-1.312.688-.391 1.617-.586 2.789-.586 1.516 0 2.852.379 4.008 1.136 1.156.758 2.059 1.832 2.707 3.223.649 1.391.973 3.031.973 4.922 0 1.906-.324 3.558-.973 4.957-.648 1.391-1.547 2.469-2.695 3.234-1.149.758-2.473 1.137-3.973 1.137-1.156 0-2.082-.191-2.777-.574-.695-.391-1.231-.832-1.606-1.324-.375-.5-.664-.915-.867-1.243h-.234v9.516h-2.766Zm2.719-15.75c0 1.359.199 2.559.598 3.598.398 1.031.98 1.839 1.746 2.425.765.579 1.703.868 2.812.868 1.156 0 2.121-.305 2.895-.914.781-.618 1.367-1.446 1.758-2.485.398-1.047.597-2.211.597-3.492 0-1.266-.195-2.406-.586-3.422-.383-1.023-.965-1.832-1.746-2.426-.773-.601-1.746-.902-2.918-.902-1.125 0-2.07.285-2.836.855-.765.563-1.343 1.352-1.734 2.368-.391 1.007-.586 2.183-.586 3.527Zm24.703 9.375c-1.625 0-3.051-.387-4.277-1.16-1.219-.774-2.172-1.856-2.86-3.246-.679-1.391-1.019-3.016-1.019-4.875 0-1.875.34-3.512 1.019-4.91.688-1.399 1.641-2.485 2.86-3.258 1.226-.774 2.652-1.16 4.277-1.16s3.047.386 4.266 1.16c1.226.773 2.179 1.859 2.859 3.258.688 1.398 1.031 3.035 1.031 4.91 0 1.859-.343 3.484-1.031 4.875-.68 1.39-1.633 2.472-2.859 3.246-1.219.773-2.641 1.16-4.266 1.16Zm0-2.484c1.234 0 2.25-.317 3.047-.95.797-.632 1.387-1.464 1.77-2.496.382-1.031.574-2.148.574-3.351 0-1.203-.192-2.324-.574-3.364-.383-1.039-.973-1.878-1.77-2.519-.797-.641-1.813-.961-3.047-.961-1.234 0-2.25.32-3.047.961-.797.641-1.386 1.48-1.769 2.519-.383 1.04-.575 2.161-.575 3.364 0 1.203.192 2.32.575 3.351.383 1.032.972 1.864 1.769 2.496.797.633 1.813.95 3.047.95ZM448.589 255l-5.485-18h2.907l3.89 13.781h.188L453.933 237h2.953l3.797 13.734h.187L464.761 237h2.906l-5.484 18h-2.719l-3.938-13.828h-.281L451.308 255h-2.719Zm29.669.375c-1.735 0-3.231-.383-4.488-1.148-1.25-.774-2.215-1.852-2.895-3.235-.672-1.39-1.008-3.008-1.008-4.851 0-1.844.336-3.469 1.008-4.875.68-1.414 1.625-2.516 2.836-3.305 1.219-.797 2.641-1.195 4.266-1.195.937 0 1.863.156 2.777.468a6.892 6.892 0 0 1 2.496 1.524c.75.695 1.348 1.617 1.793 2.765.445 1.149.668 2.563.668 4.243v1.171h-13.875v-2.39h11.062c0-1.016-.203-1.922-.609-2.719a4.59 4.59 0 0 0-1.711-1.887c-.734-.461-1.601-.691-2.601-.691-1.102 0-2.055.273-2.86.82a5.394 5.394 0 0 0-1.84 2.11 6.205 6.205 0 0 0-.644 2.789v1.594c0 1.359.234 2.511.703 3.457.477.937 1.137 1.652 1.98 2.144.844.484 1.825.727 2.942.727.726 0 1.383-.102 1.969-.305a4.212 4.212 0 0 0 1.535-.938c.429-.421.761-.945.996-1.57l2.672.75a5.94 5.94 0 0 1-1.418 2.391c-.664.679-1.485 1.211-2.461 1.593-.977.376-2.074.563-3.293.563Zm11.66-.375v-18h2.672v2.719h.187c.328-.891.922-1.614 1.782-2.168.859-.555 1.828-.832 2.906-.832.203 0 .457.004.762.011.304.008.535.02.691.036v2.812a8.644 8.644 0 0 0-.645-.105 6.301 6.301 0 0 0-1.043-.082c-.875 0-1.656.183-2.343.55-.68.36-1.219.86-1.617 1.5-.391.633-.586 1.356-.586 2.168V255h-2.766Zm12.653 0v-24h2.766v8.859h.234c.203-.312.485-.711.844-1.195.367-.492.891-.93 1.57-1.312.688-.391 1.618-.586 2.789-.586 1.516 0 2.852.379 4.008 1.136 1.156.758 2.059 1.832 2.707 3.223.649 1.391.973 3.031.973 4.922 0 1.906-.324 3.558-.973 4.957-.648 1.391-1.547 2.469-2.695 3.234-1.148.758-2.473 1.137-3.973 1.137-1.156 0-2.082-.191-2.777-.574-.695-.391-1.231-.832-1.606-1.324-.375-.5-.664-.915-.867-1.243h-.328V255h-2.672Zm2.719-9c0 1.359.199 2.559.598 3.598.398 1.031.98 1.839 1.746 2.425.765.579 1.703.868 2.812.868 1.157 0 2.121-.305 2.895-.914.781-.618 1.367-1.446 1.758-2.485.398-1.047.597-2.211.597-3.492 0-1.266-.195-2.406-.586-3.422-.382-1.023-.964-1.832-1.746-2.426-.773-.601-1.746-.902-2.918-.902-1.125 0-2.07.285-2.836.855-.765.563-1.343 1.352-1.734 2.368-.391 1.007-.586 2.183-.586 3.527Zm17.402 9v-18h2.766v18h-2.766Zm1.407-21a1.97 1.97 0 0 1-1.395-.551 1.767 1.767 0 0 1-.574-1.324c0-.516.191-.957.574-1.324a1.97 1.97 0 0 1 1.395-.551c.539 0 1 .184 1.382.551.391.367.586.808.586 1.324s-.195.957-.586 1.324a1.924 1.924 0 0 1-1.382.551Zm10.503 21-5.485-18h2.906l3.891 13.781h.188L539.945 237h2.953l3.797 13.734h.188l3.89-13.734h2.907l-5.485 18h-2.718l-3.938-13.828h-.281L537.32 255h-2.718Zm29.669.375c-1.735 0-3.231-.383-4.489-1.148-1.25-.774-2.215-1.852-2.894-3.235-.672-1.39-1.008-3.008-1.008-4.851 0-1.844.336-3.469 1.008-4.875.679-1.414 1.625-2.516 2.836-3.305 1.218-.797 2.64-1.195 4.265-1.195.938 0 1.864.156 2.778.468a6.892 6.892 0 0 1 2.496 1.524c.75.695 1.347 1.617 1.793 2.765.445 1.149.668 2.563.668 4.243v1.171h-13.875v-2.39h11.062c0-1.016-.203-1.922-.609-2.719a4.598 4.598 0 0 0-1.711-1.887c-.735-.461-1.602-.691-2.602-.691-1.101 0-2.054.273-2.859.82a5.394 5.394 0 0 0-1.84 2.11 6.192 6.192 0 0 0-.644 2.789v1.594c0 1.359.234 2.511.703 3.457.476.937 1.136 1.652 1.98 2.144.844.484 1.824.727 2.942.727.726 0 1.382-.102 1.968-.305a4.195 4.195 0 0 0 1.535-.938c.43-.421.762-.945.997-1.57l2.671.75a5.929 5.929 0 0 1-1.418 2.391c-.664.679-1.484 1.211-2.461 1.593-.976.376-2.074.563-3.292.563Zm19.207 0c-1.735 0-3.231-.383-4.489-1.148-1.25-.774-2.215-1.852-2.894-3.235-.672-1.39-1.008-3.008-1.008-4.851 0-1.844.336-3.469 1.008-4.875.679-1.414 1.625-2.516 2.836-3.305 1.218-.797 2.64-1.195 4.265-1.195.938 0 1.864.156 2.778.468a6.892 6.892 0 0 1 2.496 1.524c.75.695 1.347 1.617 1.793 2.765.445 1.149.668 2.563.668 4.243v1.171h-13.875v-2.39h11.062c0-1.016-.203-1.922-.609-2.719a4.598 4.598 0 0 0-1.711-1.887c-.735-.461-1.602-.691-2.602-.691-1.101 0-2.054.273-2.859.82a5.394 5.394 0 0 0-1.84 2.11 6.192 6.192 0 0 0-.644 2.789v1.594c0 1.359.234 2.511.703 3.457.476.937 1.136 1.652 1.98 2.144.844.484 1.824.727 2.942.727.726 0 1.382-.102 1.968-.305a4.195 4.195 0 0 0 1.535-.938c.43-.421.762-.945.997-1.57l2.671.75a5.917 5.917 0 0 1-1.418 2.391c-.664.679-1.484 1.211-2.46 1.593-.977.376-2.075.563-3.293.563Zm14.238-6.938-.047-3.421h.562l7.875-8.016h3.422l-8.39 8.484h-.235l-3.187 2.953ZM595.138 255v-24h2.765v24h-2.765Zm11.437 0-7.031-8.906 1.969-1.922L610.091 255h-3.516Zm9.279-24v24h-2.766v-24h2.766Zm6.846 30.75c-.469 0-.887-.039-1.254-.117-.367-.07-.621-.141-.761-.211l.703-2.438c.672.172 1.265.235 1.781.188.516-.047.973-.277 1.371-.692.406-.406.777-1.066 1.113-1.98l.516-1.406L619.513 237h3l4.968 14.344h.188L632.638 237h3l-7.641 20.625c-.344.93-.769 1.699-1.277 2.309-.508.617-1.098 1.074-1.77 1.371-.664.297-1.414.445-2.25.445Zm17.476-6.562a2.03 2.03 0 0 1-1.488-.622 2.027 2.027 0 0 1-.622-1.488c0-.578.207-1.074.622-1.488a2.03 2.03 0 0 1 1.488-.621 2.03 2.03 0 0 1 1.488.621c.414.414.621.91.621 1.488 0 .383-.097.734-.293 1.055-.187.32-.441.578-.762.773a2.004 2.004 0 0 1-1.054.282Zm7.072-.188v-18h2.766v18h-2.766Zm1.406-21a1.965 1.965 0 0 1-1.394-.551 1.767 1.767 0 0 1-.574-1.324c0-.516.191-.957.574-1.324.39-.367.855-.551 1.394-.551.539 0 1 .184 1.383.551.391.367.586.808.586 1.324s-.195.957-.586 1.324a1.928 1.928 0 0 1-1.383.551Zm9.191 10.172V255h-2.766v-18h2.672v2.812h.234a5.146 5.146 0 0 1 1.922-2.203c.86-.562 1.969-.843 3.328-.843 1.219 0 2.286.25 3.2.75.914.492 1.625 1.242 2.132 2.25.508 1 .762 2.265.762 3.797V255h-2.766v-11.25c0-1.414-.367-2.516-1.101-3.305-.734-.797-1.742-1.195-3.024-1.195-.882 0-1.671.191-2.367.574-.687.383-1.23.942-1.629 1.676-.398.734-.597 1.625-.597 2.672ZM682.398 237v2.344h-9.703V237h9.703Zm-6.796 18v-20.484c0-1.032.242-1.891.726-2.579a4.494 4.494 0 0 1 1.887-1.546 5.959 5.959 0 0 1 2.449-.516c.68 0 1.234.055 1.664.164.43.109.75.211.961.305l-.797 2.39c-.14-.047-.336-.105-.586-.175-.242-.071-.562-.106-.961-.106-.914 0-1.574.231-1.98.692-.399.46-.598 1.136-.598 2.027V255h-2.765Zm17.244.375c-1.625 0-3.051-.387-4.278-1.16-1.218-.774-2.172-1.856-2.859-3.246-.68-1.391-1.02-3.016-1.02-4.875 0-1.875.34-3.512 1.02-4.91.687-1.399 1.641-2.485 2.859-3.258 1.227-.774 2.653-1.16 4.278-1.16 1.625 0 3.047.386 4.265 1.16 1.227.773 2.18 1.859 2.86 3.258.687 1.398 1.031 3.035 1.031 4.91 0 1.859-.344 3.484-1.031 4.875-.68 1.39-1.633 2.472-2.86 3.246-1.218.773-2.64 1.16-4.265 1.16Zm0-2.484c1.234 0 2.25-.317 3.047-.95.796-.632 1.386-1.464 1.769-2.496.383-1.031.574-2.148.574-3.351 0-1.203-.191-2.324-.574-3.364-.383-1.039-.973-1.878-1.769-2.519-.797-.641-1.813-.961-3.047-.961-1.235 0-2.25.32-3.047.961-.797.641-1.387 1.48-1.77 2.519-.383 1.04-.574 2.161-.574 3.364 0 1.203.191 2.32.574 3.351.383 1.032.973 1.864 1.77 2.496.797.633 1.812.95 3.047.95Z" class="or visit powerbiweekly.info"/>
      </g> -->
  </g>
</svg>
