<svg xmlns="http://www.w3.org/2000/svg" width="992" height="320" fill="none" viewBox="0 0 992 320">
  <g class="ad-azure-weekly">
    <path fill="#00A0FA" d="M0 0h992v320H0z"/>
    <g class="cloud">
      <path fill="#fff" d="M780.564 245.259h-1.329l-.497-.084c-24.355-4.108-42.255-25.007-42.564-49.695l-.001-.065v-.065c.192-20.927 13.489-39.713 32.826-47.075 2.702-21.059 20.903-37.416 42.508-37.416a43.413 43.413 0 0 1 10.288 1.234c17.79-21.687 48.242-28.96 74.085-17.167a60.91 60.91 0 0 1 12.095 7.189c13.63 10.387 21.989 25.841 23.265 42.794a53.96 53.96 0 0 1 19.246 13.45c8.886 9.507 13.839 21.969 13.906 35.045-.13 25.078-18.044 46.748-42.596 51.59l-.578.114h-1.866l-138.788.151Zm-32.336-49.864c.265 18.668 13.696 34.488 32.035 37.813l139.758-.152c18.662-3.95 32.219-20.536 32.317-39.654-.05-9.971-3.851-19.534-10.702-26.864a41.944 41.944 0 0 0-18.106-11.63l-4.183-1.343v-5.132c-.308-14.535-7.116-27.924-18.682-36.739a49.093 49.093 0 0 0-9.743-5.787c-21.97-10.02-48.001-3.02-61.945 16.63l-2.639 3.718-4.297-1.528a31.37 31.37 0 0 0-10.216-1.818c-16.683-.176-30.664 13.272-31.106 29.973l-.117 4.416-4.249 1.217c-16.382 4.691-27.94 19.85-28.125 36.88Z" class="cloud-main"/>
      <path fill="#fff" d="M720.923 91.893a9.352 9.352 0 0 0-6.753-8.876 7.772 7.772 0 0 0-10.257-7.014 11.671 11.671 0 0 0-14.458-3.877c-.807.364-1.569.821-2.271 1.36a11.146 11.146 0 0 0-4.38 8.63v.17a9.877 9.877 0 0 0-4.253 2.754A9.506 9.506 0 0 0 676 91.476a9.72 9.72 0 0 0 7.85 9.489h29.223-.093.178a9.354 9.354 0 0 0 7.765-9.072Z" class="cloud-r"/>
      <path fill="#fff" d="M760.871 84.556a17.6 17.6 0 0 0-12.757-16.758c-.209-7.889-6.709-14.152-14.603-14.07-1.63.016-3.245.304-4.78.85-6.14-8.652-17.562-11.725-27.216-7.32a21.57 21.57 0 0 0-4.295 2.55 20.998 20.998 0 0 0-8.267 16.281v.315a18.786 18.786 0 0 0-8.114 5.203A17.962 17.962 0 0 0 676 83.782a18.365 18.365 0 0 0 14.816 17.922h.501l54.654.06h-.162.323c8.428-1.422 14.632-8.665 14.739-17.208Z" class="cloud-l"/>
      <g class="cloud-mail">
        <g class="newsletter">
          <path fill="#00A0FA" d="m780.774 214.659-25.124-10.104-1.961 10.115c-3.347 17.26 2.185 28.055 7.415 34.07 5.349 6.154 11.504 8.75 13.91 9.583l.085.029 51.062 23.095h.127c3.658 1.468 9.467 3.349 15.213 3.349h.572c.261.026.514.044.767.053a11.403 11.403 0 0 0 1.775-.033l.24-.027c27.522-3.477 39.463-21.053 49.811-48.288 3.527-9.301 7.039-19.105 10.317-28.556l-116.308-14.579c-2.659 7.501-5.348 14.8-7.901 21.293Z" class="newsletter-mask"/>
          <g class="newsletter-body">
            <path fill="#fff" d="M816.905 135.029s-15.913 53.367-28.917 83.379l8.377 3.256c11.167-27.912 21.918-63.314 26.247-76.943l80.168 15.899-.579 1.836c-3.359 10.747-12.383 38.88-23.439 68.016-10.657 28.057-19.834 34.655-33.051 37.001h-1.088c-4.857 0-8.812-1.632-11.754-4.863-5.656-6.207-5.792-16.468-5.639-20.099l-65.191-26.22c-5.23 26.977 14.901 33.702 15.777 34.008h.102l50.077 22.649c.068 0 7.085 3.35 13.506 3.35h1.106c.211.036.424.056.638.06.181.012.363.012.544 0 20.659-2.61 31.894-13.833 42.925-42.867 13.863-36.559 27.335-80.413 27.335-80.413l-97.144-18.049Z" class="Vector"/>
            <path fill="#fff" d="m892.378 166.801-64.281-12.787a2068.463 2068.463 0 0 1-7.297 22.879l62.869 16.153a1412.558 1412.558 0 0 0 8.709-26.245Zm-75.669 22.428 62.24 17.302c.85-2.449 1.701-4.864 2.551-7.219l-62.52-16.885c-.742 2.228-1.499 4.495-2.271 6.802Zm-4.142 11.996 61.415 18.994c.901-2.449 1.794-4.872 2.662-7.261l-61.712-18.534a543.725 543.725 0 0 1-2.365 6.801Zm-4.269 11.776 60.785 19.877c.689-1.649 1.386-3.4 2.092-5.279l.757-1.981-61.134-19.555a277.762 277.762 0 0 1-2.5 6.938Zm-4.423 11.469 31.588 12.719-.23 5.671c-.187 4.616.621 11.146 3.547 14.351.85.961 2.432 2.236 5.809 2.236h.144c7.238-1.335 13.676-4.081 21.348-19.801l-60.216-20.235a590.903 590.903 0 0 1-1.99 5.059Z" class="Vector"/>
          </g>
        </g>
      </g>
    </g>
  </g>
</svg>
