<?xml version="1.0" encoding="utf-8"?>
<!-- Generator: Adobe Illustrator 26.3.1, SVG Export Plug-In . SVG Version: 6.00 Build 0)  -->
<svg version="1.1" id="Layer_1" xmlns="http://www.w3.org/2000/svg" xmlns:xlink="http://www.w3.org/1999/xlink" x="0px" y="0px"
	 viewBox="0 0 512 512" style="enable-background:new 0 0 512 512;" xml:space="preserve">
<style type="text/css">
	.st0{fill:#5CF1FF;}
</style>
<g id="cloud-bg">
	<g>
		<path fill="#5CF1FF" d="M185.824,327.17h0.968h-0.484l163.668-0.178h1.503c25.678-5.064,44.233-27.518,44.368-53.69
			c-0.068-13.548-5.243-26.573-14.492-36.473c-6.605-7.222-14.98-12.594-24.298-15.587v-0.306v-0.637l0,0
			c-0.383-19.183-9.498-37.142-24.757-48.774c-3.977-3.036-8.293-5.601-12.862-7.641c-28.91-13.193-63.116-3.989-81.503,21.929
			c-4.597-1.636-9.434-2.497-14.314-2.547c-23.641-0.245-43.107,18.519-43.731,42.152c-22.446,6.428-37.99,26.854-38.205,50.201
			C142.005,301.212,160.586,322.912,185.824,327.17z"/>
	</g>
</g>
<g id="cloud-frame">
	<path d="M186.792,334.257h-1.562l-0.585-0.099c-28.636-4.831-49.683-29.413-50.046-58.45l-0.001-0.077l0-0.077
		c0.226-24.614,15.86-46.71,38.596-55.369c3.177-24.769,24.577-44.008,49.98-44.008c0.175,0,0.345,0.001,0.52,0.003
		c3.918,0.04,7.794,0.526,11.577,1.449c20.917-25.509,56.722-34.062,87.108-20.192c5.01,2.236,9.812,5.09,14.221,8.455
		c16.026,12.218,25.854,30.394,27.354,50.334c8.589,3.537,16.339,8.944,22.629,15.82c10.448,11.182,16.272,25.84,16.35,41.22
		c-0.152,29.496-21.215,54.984-50.083,60.679l-0.679,0.134h-2.195L186.792,334.257z M148.772,275.607
		c0.312,21.958,16.104,40.565,37.666,44.476l164.325-0.179c21.942-4.646,37.882-24.154,37.998-46.641
		c-0.059-11.728-4.528-22.975-12.584-31.597c-5.814-6.356-13.158-11.067-21.288-13.679l-4.919-1.58v-6.036
		c-0.362-17.096-8.366-32.844-21.966-43.212c-3.541-2.703-7.394-4.992-11.455-6.806c-25.832-11.787-56.439-3.552-72.834,19.559
		l-3.103,4.374l-5.052-1.798c-3.866-1.376-7.907-2.095-12.012-2.138c-19.615-0.207-36.054,15.611-36.574,35.254l-0.137,5.194
		l-4.996,1.431C162.579,237.747,148.99,255.577,148.772,275.607z"/>
</g>
<g id="cloud-l">
	<path d="M205.661,180.525c-0.084-9.167-6.187-17.186-15-19.71c-0.245-9.279-7.888-16.646-17.17-16.55
		c-1.916,0.02-3.815,0.358-5.62,1c-7.219-10.176-20.649-13.79-32-8.61c-1.794,0.801-3.489,1.808-5.05,3
		c-5.991,4.567-9.57,11.618-9.72,19.15l0,0v0.25v0.12c-3.658,1.175-6.947,3.285-9.54,6.12c-3.632,3.887-5.663,9.001-5.69,14.32
		c0.053,10.276,7.338,19.092,17.42,21.08h0.59l64.26,0.07h-0.19h0.38C198.24,199.093,205.535,190.573,205.661,180.525z"/>
</g>
<g id="cloud-r">
	<path d="M405.871,189.155c-0.056-4.85-3.281-9.091-7.94-10.44c-0.225-5.043-4.496-8.948-9.539-8.723
		c-0.858,0.038-1.707,0.198-2.521,0.473c-3.817-5.433-10.976-7.354-17-4.56c-0.949,0.429-1.845,0.966-2.67,1.6
		c-3.172,2.423-5.068,6.159-5.15,10.15l0,0v0.2c-1.92,0.627-3.644,1.743-5,3.24c-1.916,2.057-2.987,4.759-3,7.57
		c0.027,5.443,3.888,10.112,9.23,11.16h0.31h34.05h-0.11h0.21C401.954,198.926,405.789,194.444,405.871,189.155z"/>
</g>
<g id="cloud-mail">
	<g>
		<path fill="#5CF1FF" d="M187.039,298.266l-29.54-11.885l-2.306,11.898c-3.935,20.301,2.569,32.997,8.718,40.072
			c6.29,7.239,13.526,10.292,16.356,11.272l0.099,0.034l60.038,27.164h0.149c4.301,1.727,11.132,3.939,17.888,3.939h0.672
			c0.307,0.031,0.605,0.052,0.902,0.062c0.264,0.017,0.529,0.024,0.796,0.024c0.434,0,0.867-0.021,1.291-0.062l0.282-0.032
			c32.36-4.09,46.4-24.762,58.567-56.796c4.147-10.94,8.276-22.471,12.13-33.587l-136.752-17.148
			C193.202,282.043,190.041,290.629,187.039,298.266z"/>
		<g>
			<path d="M229.521,204.605c0,0-18.71,62.77-34,98.07l9.85,3.83c13.13-32.83,25.77-74.47,30.86-90.5l94.26,18.7l-0.68,2.16
				c-3.95,12.64-14.56,45.73-27.56,80c-12.53,33-23.32,40.76-38.86,43.52h-0.14h-0.14c-0.34,0-0.68,0-1,0
				c-5.71,0-10.36-1.92-13.82-5.72c-6.65-7.3-6.81-19.37-6.63-23.64l-76.65-30.84c-6.15,31.73,17.52,39.64,18.55,40h0.12
				l58.88,26.64c0.08,0,8.33,3.94,15.88,3.94h0.9h0.2h0.2c0.248,0.042,0.499,0.066,0.75,0.07c0.213,0.015,0.427,0.015,0.64,0
				c24.29-3.07,37.5-16.27,50.47-50.42c16.3-43,32.14-94.58,32.14-94.58L229.521,204.605z"/>
			<path d="M318.261,241.975l-75.58-15.04c-2.25,7.17-5.19,16.52-8.58,26.91l73.92,19
				C312.241,260.525,315.761,249.775,318.261,241.975z"/>
			<path d="M229.291,268.355l73.18,20.35c1-2.88,2-5.72,3-8.49l-73.51-19.86C231.088,262.975,230.198,265.641,229.291,268.355z"/>
			<path d="M224.421,282.465l72.21,22.34c1.06-2.88,2.11-5.73,3.13-8.54l-72.56-21.8
				C226.294,277.131,225.368,279.798,224.421,282.465z"/>
			<path d="M219.401,296.315l71.47,23.38c0.81-1.94,1.63-4,2.46-6.21l0.89-2.33l-71.88-23
				C221.401,290.905,220.401,293.625,219.401,296.315z"/>
			<path d="M214.201,309.805l37.14,14.96l-0.27,6.67c-0.22,5.43,0.73,13.11,4.17,16.88c1,1.13,2.86,2.63,6.83,2.63h0.17
				c8.51-1.57,16.08-4.8,25.1-23.29l-70.8-23.8C215.761,305.855,214.981,307.855,214.201,309.805z"/>
		</g>
	</g>
</g>
</svg>
