
      <svg
        xmlns="http://www.w3.org/2000/svg"
        width="992"
        height="320"
        fill="none"
        viewBox="0 0 992 320"
      >
        <style>
          * {
            transform-box: fill-box;
            text-decoration: none;
          }

          .bg {
            fill: #78c021;
          }

          .text {
            font-family: var(--ff-heading, "Inter var"), sans-serif;
            font-size: 50px;
            fill: white;
          }

          .h1 {
            font-weight: 600;
            font-size: 37px;
          }

          .h2 {
            font-size: 33px;
          }

          .p {
            font-size: 20px;
          }

          .btn {
            stroke-width: 4px;
            stroke: white;
          }

          path {
            stroke: #94f123;
            stroke-width: 2;
            stroke-linecap: round;
            stroke-linejoin: round;
          }

          /* responsive */

          .title {
            display: block;
          }
          .title-sm {
            display: none;
          }
          .intro {
            display: block;
          }

          @media screen and (max-width: 600px) {
            .title {
              display: none;
            }
            .title-sm {
              display: block;
            }
            .intro {
              display: none;
            }
          }

          /* graphics */

          @keyframes icons-a {
            0% {
              transform: translateY(0);
            }
            100% {
              transform: translateY(-660px);
            }
          }
          @keyframes icons-b {
            0% {
              transform: translateY(660px);
            }
            100% {
              transform: translateY(-320px);
            }
          }

          .icon-strip {
            animation-timing-function: linear;
            animation-duration: 15s;
            animation-fill-mode: forwards;
            animation-iteration-count: infinite;
          }

          .icon-strip-1a {
            animation-name: icons-a;
            transform: translateX(760px);
          }
          .icon-strip-2a {
            animation-name: icons-a;
            transform: translateX(840px);
            animation-direction: alternate-reverse;
            animation-duration: 30s;
          }
          .icon-strip-3a {
            animation-name: icons-a;
            transform: translateX(920px);
            animation-duration: 20s;
          }
          .icon-strip-1b {
            animation-name: icons-a;
            transform: translateX(760px);
          }
          .icon-strip-2b {
            animation-name: icons-a;
            transform: translateX(840px);
            animation-direction: alternate-reverse;
            animation-duration: 30s;
          }
          .icon-strip-3b {
            animation-name: icons-a;
            transform: translateX(920px);
            animation-duration: 20s;
          }
        </style>
        <!-- animation-name: icons; -->
        <!-- Defs -->
        <defs>
          <symbol id="icons">
            <!-- icons -->
            <g height="660" width="52">
              <path
                d="M25.9999 226.012C15.4701 226.012 6.93335 222.623 6.93335 218.442C6.93335 214.262 15.4701 210.873 25.9999 210.873C36.5298 210.873 45.0665 214.26 45.0665 218.442C45.0665 220.372 43.2481 222.133 40.255 223.469"
              />
              <path d="M45.0667 226.012V218.442" />
              <path
                d="M6.93335 218.442V228.535C6.93335 232.006 12.8177 234.928 20.841 235.824"
              />
              <path
                d="M6.93335 228.536V238.629C6.93335 242.104 12.833 245.031 20.8731 245.921"
              />
              <path
                d="M34.8978 239.89C36.3018 239.89 37.44 238.761 37.44 237.367C37.44 235.973 36.3018 234.844 34.8978 234.844C33.4938 234.844 32.3556 235.973 32.3556 237.367C32.3556 238.761 33.4938 239.89 34.8978 239.89Z"
              />
              <path
                d="M37.0568 227.609L37.806 230.051C37.9293 230.457 38.2034 230.801 38.5729 231.014C38.9423 231.227 39.3795 231.292 39.7957 231.197L42.2905 230.623C42.7637 230.517 43.2587 230.564 43.703 230.757C44.1473 230.951 44.5174 231.28 44.7591 231.698C45.0008 232.115 45.1014 232.599 45.046 233.077C44.9906 233.555 44.7822 234.004 44.4514 234.356L42.704 236.222C42.4124 236.533 42.2503 236.942 42.2503 237.367C42.2503 237.792 42.4124 238.201 42.704 238.513L44.4514 240.382C44.7816 240.734 44.9895 241.182 45.0446 241.66C45.0997 242.138 44.999 242.621 44.7574 243.038C44.5158 243.456 44.146 243.785 43.702 243.978C43.2581 244.172 42.7634 244.219 42.2905 244.113L39.7957 243.539C39.3795 243.444 38.9424 243.509 38.5729 243.722C38.2034 243.935 37.9293 244.279 37.806 244.685L37.0568 247.123C36.9179 247.584 36.6327 247.988 36.2437 248.276C35.8547 248.563 35.3827 248.718 34.8977 248.718C34.4127 248.718 33.9406 248.563 33.5516 248.276C33.1626 247.988 32.8775 247.584 32.7385 247.123L31.9894 244.68C31.8662 244.274 31.592 243.93 31.2226 243.717C30.8531 243.504 30.4159 243.439 29.9997 243.534L27.5049 244.108C27.032 244.214 26.5374 244.167 26.0934 243.973C25.6495 243.78 25.2796 243.45 25.038 243.033C24.7964 242.616 24.6958 242.133 24.7509 241.655C24.8059 241.177 25.0138 240.729 25.3441 240.377L27.0914 238.508C27.383 238.196 27.5451 237.787 27.5451 237.362C27.5451 236.937 27.383 236.528 27.0914 236.216L25.3441 234.348C25.0132 233.995 24.8048 233.547 24.7495 233.069C24.6941 232.59 24.7946 232.107 25.0363 231.689C25.278 231.272 25.6481 230.942 26.0924 230.749C26.5367 230.555 27.0318 230.508 27.5049 230.615L29.9997 231.188C30.4159 231.284 30.8531 231.218 31.2225 231.006C31.592 230.793 31.8662 230.449 31.9894 230.043L32.7385 227.6C32.8784 227.139 33.1643 226.736 33.5539 226.449C33.9435 226.162 34.4158 226.008 34.9008 226.009C35.3858 226.009 35.8576 226.166 36.246 226.454C36.6344 226.742 36.9188 227.147 37.0568 227.609V227.609Z"
              />
              <path
                d="M23.1376 80.261C22.4124 79.2922 21.4852 78.4899 20.4194 77.9088C19.3535 77.3277 18.174 76.9815 16.9612 76.8937H9.05212"
              />
              <path
                d="M42.9478 76.8937H35.0388C29.3895 76.8937 26 84.7438 26 84.7438C26 84.7438 22.6104 92.5938 16.9612 92.5938H9.05212"
              />
              <path
                d="M28.8623 89.2325C29.5877 90.2007 30.515 91.0022 31.5809 91.5823C32.6469 92.1624 33.8263 92.5074 35.0389 92.5938H42.9479"
              />
              <path d="M38.4285 72.4076L42.9479 76.8934L38.4285 81.3792" />
              <path d="M38.4285 88.1078L42.9479 92.5936L38.4285 97.0794" />
              <path
                d="M18.1138 152.858V139.439C18.1138 138.846 18.3511 138.277 18.7737 137.858C19.1962 137.438 19.7693 137.203 20.3669 137.202H40.6458C41.2435 137.202 41.8167 137.438 42.2393 137.858C42.662 138.277 42.8994 138.846 42.8994 139.439V155.094C42.8994 155.688 42.662 156.256 42.2393 156.676C41.8167 157.095 41.2435 157.331 40.6458 157.331H33.8858"
              />
              <path d="M18.1138 143.912H42.899" />
              <path
                d="M21.4935 166.276H10.2276C9.60536 166.276 9.10095 166.777 9.10095 167.395V169.631C9.10095 170.249 9.60536 170.749 10.2276 170.749H21.4935C22.1157 170.749 22.6201 170.249 22.6201 169.631V167.395C22.6201 166.777 22.1157 166.276 21.4935 166.276Z"
              />
              <path d="M18.6771 161.244L29.3798 150.621" />
              <path d="M22.6205 150.621H29.3795V157.331" />
              <path
                d="M16.8891 304.343C22.6397 304.343 27.3015 302.03 27.3015 299.176C27.3015 296.322 22.6397 294.008 16.8891 294.008C11.1386 294.008 6.47681 296.322 6.47681 299.176C6.47681 302.03 11.1386 304.343 16.8891 304.343Z"
              />
              <path
                d="M6.47681 299.176V306.927C6.47681 309.781 11.138 312.094 16.8891 312.094C22.6402 312.094 27.3016 309.781 27.3016 306.927V299.176"
              />
              <path
                d="M6.47681 306.927V314.678C6.47681 317.532 11.138 319.845 16.8891 319.845C22.6402 319.845 27.3016 317.532 27.3016 314.678V306.927"
              />
              <path d="M32.5077 299.176L27.3015 304.343" />
              <path
                d="M39.0154 296.592C42.6095 296.592 45.5232 294.857 45.5232 292.716C45.5232 290.576 42.6095 288.841 39.0154 288.841C35.4213 288.841 32.5077 290.576 32.5077 292.716C32.5077 294.857 35.4213 296.592 39.0154 296.592Z"
              />
              <path
                d="M32.5077 292.715V300.466C32.5077 302.605 35.4214 304.341 39.0154 304.341C42.6095 304.341 45.5232 302.605 45.5232 300.466V292.715"
              />
              <path d="M26.5918 316.557L32.5077 322.429" />
              <path
                d="M39.0154 319.845C42.6095 319.845 45.5232 318.11 45.5232 315.97C45.5232 313.829 42.6095 312.094 39.0154 312.094C35.4213 312.094 32.5077 313.829 32.5077 315.97C32.5077 318.11 35.4213 319.845 39.0154 319.845Z"
              />
              <path
                d="M32.5077 315.968V323.719C32.5077 325.858 35.4214 327.595 39.0154 327.595C42.6095 327.595 45.5232 325.858 45.5232 323.719V315.968"
              />
              <path
                d="M40.4563 1.19568H11.5436C10.2129 1.19568 9.13416 2.26637 9.13416 3.58713V29.8931C9.13416 31.2139 10.2129 32.2845 11.5436 32.2845H40.4563C41.787 32.2845 42.8657 31.2139 42.8657 29.8931V3.58713C42.8657 2.26637 41.787 1.19568 40.4563 1.19568Z"
              />
              <path d="M9.13416 8.37006H42.8657" />
              <path
                d="M21.1812 27.5017C25.1732 27.5017 28.4094 24.2896 28.4094 20.3273C28.4094 16.365 25.1732 13.153 21.1812 13.153C17.1892 13.153 13.953 16.365 13.953 20.3273C13.953 24.2896 17.1892 27.5017 21.1812 27.5017Z"
              />
              <path d="M21.1814 13.1534V20.3275L26.2921 25.4001" />
              <path d="M33.2281 15.5444H38.0469" />
              <path d="M33.2281 20.3273H38.0469" />
              <path d="M33.2281 25.1102H38.0469" />
              <path
                d="M7.92957 382.067V389.241C7.92957 393.203 16.0203 396.415 26 396.415C35.9797 396.415 44.0704 393.203 44.0704 389.241V382.067"
              />
              <path d="M26 396.415V403.59" />
              <path d="M16.3624 403.59H35.6376" />
              <path
                d="M41.0587 402.392C40.9396 402.392 40.8232 402.428 40.7241 402.493C40.6251 402.559 40.5479 402.652 40.5023 402.762C40.4567 402.871 40.4448 402.991 40.468 403.107C40.4912 403.223 40.5486 403.329 40.6328 403.413C40.7171 403.497 40.8244 403.554 40.9412 403.577C41.0581 403.6 41.1792 403.588 41.2892 403.543C41.3993 403.497 41.4934 403.421 41.5596 403.322C41.6257 403.224 41.6611 403.109 41.6611 402.99C41.6611 402.832 41.5976 402.68 41.4847 402.568C41.3717 402.455 41.2185 402.392 41.0587 402.392Z"
              />
              <path
                d="M10.9413 402.392C10.9415 402.234 11.0052 402.082 11.1184 401.969C11.2316 401.857 11.385 401.794 11.5449 401.794C11.7048 401.795 11.8582 401.858 11.9712 401.97C12.0842 402.082 12.1478 402.234 12.1478 402.393C12.1478 402.552 12.0842 402.704 11.9712 402.816C11.8582 402.929 11.7048 402.992 11.5449 402.992C11.385 402.992 11.2316 402.929 11.1184 402.817C11.0052 402.705 10.9415 402.553 10.9413 402.394"
              />
              <path
                d="M7.92957 374.892V382.067C7.92957 386.029 16.0203 389.241 26 389.241C35.9797 389.241 44.0704 386.029 44.0704 382.067V374.892"
              />
              <path
                d="M26 382.067C35.98 382.067 44.0704 378.855 44.0704 374.892C44.0704 370.93 35.98 367.718 26 367.718C16.02 367.718 7.92957 370.93 7.92957 374.892C7.92957 378.855 16.02 382.067 26 382.067Z"
              />
              <path
                d="M1.20732 463.752C1.17668 462.323 1.42992 460.902 1.95259 459.57C2.47525 458.238 3.2571 457.021 4.2535 455.989C5.2499 454.957 6.44133 454.13 7.75977 453.555C9.0782 452.98 10.4978 452.669 11.9376 452.638C12.083 452.635 12.2284 452.635 12.3739 452.638C13.5396 450.007 15.4452 447.765 17.862 446.182C20.2789 444.6 23.1045 443.742 25.9999 443.713C29.9191 443.786 33.6615 445.345 36.4592 448.07C39.2569 450.796 40.8979 454.48 41.0453 458.368C42.2471 458.134 43.4865 458.171 44.672 458.476C45.8574 458.781 46.9587 459.347 47.8944 460.131C48.8301 460.915 49.5763 461.898 50.078 463.007C50.5796 464.116 50.8239 465.323 50.7927 466.538C50.7927 475.021 42.1692 474.887 42.1692 474.887H10.9084C8.20683 474.512 5.73429 473.176 3.95007 471.128C2.16585 469.08 1.19125 466.459 1.20732 463.752V463.752Z"
              />
              <path
                d="M22.4132 607.139C14.1522 606.479 7.92957 603.581 7.92957 600.107C7.92957 596.143 16.0203 592.933 26 592.933C35.9797 592.933 44.0704 596.143 44.0704 600.107C44.0704 601.99 42.2426 603.704 39.2516 604.984"
              />
              <path d="M44.0704 609.673V600.107" />
              <path
                d="M7.92957 600.107V609.673C7.92957 612.622 12.4143 615.155 18.8232 616.259"
              />
              <path
                d="M7.92957 609.673V619.238C7.92957 622.712 14.1522 625.616 22.4132 626.271"
              />
              <path
                d="M32.0234 625.217C36.6808 625.217 40.4563 621.47 40.4563 616.847C40.4563 612.224 36.6808 608.477 32.0234 608.477C27.3661 608.477 23.5906 612.224 23.5906 616.847C23.5906 621.47 27.3661 625.217 32.0234 625.217Z"
              />
              <path d="M44.0704 628.804L37.986 622.765" />
              <path
                d="M38.2406 519.061H13.7595C12.2572 519.061 11.0393 520.27 11.0393 521.761V546.059C11.0393 547.551 12.2572 548.759 13.7595 548.759H38.2406C39.7429 548.759 40.9608 547.551 40.9608 546.059V521.761C40.9608 520.27 39.7429 519.061 38.2406 519.061Z"
              />
              <path d="M26 519.061V515.011" />
              <path d="M16.4795 519.061V515.011" />
              <path d="M35.5205 519.061V515.011" />
              <path d="M26 552.809V548.759" />
              <path d="M16.4795 552.809V548.759" />
              <path d="M35.5205 552.809V548.759" />
              <path d="M45.0409 533.91H40.9607" />
              <path d="M45.0409 543.36H40.9607" />
              <path d="M45.0409 524.461H40.9607" />
              <path d="M11.0393 533.91H6.95911" />
              <path d="M11.0393 543.36H6.95911" />
              <path d="M11.0393 524.461H6.95911" />
              <path
                d="M32.8003 524.461H19.1997C17.6974 524.461 16.4795 525.669 16.4795 527.16V540.66C16.4795 542.151 17.6974 543.36 19.1997 543.36H32.8003C34.3026 543.36 35.5204 542.151 35.5204 540.66V527.16C35.5204 525.669 34.3026 524.461 32.8003 524.461Z"
              />
              <path d="M30.0801 537.96H26" />
            </g>
            <!-- / icons -->
          </symbol>
        </defs>

        <g class="ad-aw">
          <!-- BG -->
          <rect class="bg" x="0" y="0" width="992" height="320" rx="6" />

          <!-- Icon strips -->
          <use
            href="#icons"
            height="660"
            width="52"
            x="760px"
            class="icon-strip icon-strip-1a"
          />
          <use
            href="#icons"
            height="660"
            width="52"
            x="840px"
            class="icon-strip icon-strip-2a"
          />
          <use
            href="#icons"
            height="660"
            width="52"
            x="920px"
            class="icon-strip icon-strip-3a"
          />
          <use
            href="#icons"
            height="660"
            width="52"
            x="760px"
            y="660px"
            class="icon-strip icon-strip-1b"
          />
          <use
            href="#icons"
            height="660"
            width="52"
            x="840px"
            y="660px"
            class="icon-strip icon-strip-2b"
          />
          <use
            href="#icons"
            height="660"
            width="52"
            x="920px"
            y="660px"
            class="icon-strip icon-strip-3b"
          />

          <!-- Content -->

          <!-- Title -->
          <text class="text title h1" x="32" y="76">
            FREE 1-2-1 Azure Data Strategy Briefing
          </text>

          <!-- title-sm -->
          <text class="text title-sm h1" x="32" y="76">
            <tspan x="32" dy="0">FREE 1-2-1 Azure</tspan>
            <tspan x="32" dy="90px" style="font-size: 80px">
              Data Strategy Briefing
            </tspan>
          </text>

          <!-- Intro -->
          <text class="text intro p" x="32" y="130">
            <tspan x="32" dy="0">
              The best hour you can spend to refine your own data strategy and
            </tspan>
            <tspan x="32" dy="1.6em">
              leverage the latest capabilities on Azure to accelerate your road
              map.
            </tspan>
          </text>

          <!-- click here -->
          <rect class="btn" x="32" y="200" width="284" height="72" rx="6" />
          <text class="text h2" x="72" y="248">Register now</text>
          <text class="text h2" x="360" y="248">to book your call</text>
        </g>
      </svg>